<?xml version="1.0" encoding="UTF-8" standalone="no"?>
<!-- Created with Inkscape (http://www.inkscape.org/) -->

<svg
   width="24"
   height="24"
   viewBox="0 0 6.35 6.35"
   version="1.1"
   id="svg5526"
   inkscape:version="1.2.2 (732a01da63, 2022-12-09)"
   sodipodi:docname="sprocket.svg"
   inkscape:export-filename="..\png32\sprocket.png"
   inkscape:export-xdpi="128"
   inkscape:export-ydpi="128"
   xmlns:inkscape="http://www.inkscape.org/namespaces/inkscape"
   xmlns:sodipodi="http://sodipodi.sourceforge.net/DTD/sodipodi-0.dtd"
   xmlns:xlink="http://www.w3.org/1999/xlink"
   xmlns="http://www.w3.org/2000/svg"
   xmlns:svg="http://www.w3.org/2000/svg">
  <sodipodi:namedview
     id="namedview5528"
     pagecolor="#e2e2e2"
     bordercolor="#000000"
     borderopacity="0.25"
     inkscape:showpageshadow="2"
     inkscape:pageopacity="0"
     inkscape:pagecheckerboard="0"
     inkscape:deskcolor="#d1d1d1"
     inkscape:document-units="px"
     showgrid="true"
     showguides="true"
     inkscape:zoom="20.70196"
     inkscape:cx="-8.525763"
     inkscape:cy="19.176929"
     inkscape:window-width="2560"
     inkscape:window-height="1417"
     inkscape:window-x="-8"
     inkscape:window-y="-8"
     inkscape:window-maximized="1"
     inkscape:current-layer="layer1"
     inkscape:lockguides="true">
    <inkscape:grid
       type="xygrid"
       id="grid6010"
       empspacing="1"
       originx="0.26458333"
       originy="0.26458333"
       spacingx="0.26458333"
       spacingy="0.26458333"
       enabled="true"
       visible="true" />
    <sodipodi:guide
       position="-3.4395833,5.8208333"
       orientation="0,-1"
       id="guide6012"
       inkscape:locked="true" />
    <sodipodi:guide
       position="2.778125,0.52916674"
       orientation="0,-1"
       id="guide6014"
       inkscape:locked="true" />
    <sodipodi:guide
       position="0.52916666,6.4822917"
       orientation="1,0"
       id="guide6016"
       inkscape:locked="true" />
    <sodipodi:guide
       position="5.8208333,5.953125"
       orientation="1,0"
       id="guide6018"
       inkscape:locked="true" />
    <sodipodi:guide
       position="-0.396875,3.175"
       orientation="0,-1"
       id="guide6020"
       inkscape:locked="true" />
    <sodipodi:guide
       position="3.175,9.2604166"
       orientation="1,0"
       id="guide6022"
       inkscape:locked="true" />
    <inkscape:grid
       type="xygrid"
       id="grid294"
       dotted="true"
       empspacing="1"
       originx="0.13229167"
       originy="0.13229167" />
  </sodipodi:namedview>
  <defs
     id="defs5523">
    <linearGradient
       inkscape:collect="always"
       id="linearGradient3174">
      <stop
         style="stop-color:#a4bae4;stop-opacity:1;"
         offset="0"
         id="stop3170" />
      <stop
         style="stop-color:#999999;stop-opacity:1"
         offset="1"
         id="stop3172" />
    </linearGradient>
    <linearGradient
       id="linearGradient4183"
       inkscape:swatch="solid">
      <stop
         style="stop-color:#000000;stop-opacity:1;"
         offset="0"
         id="stop4181" />
    </linearGradient>
    <linearGradient
       inkscape:collect="always"
       xlink:href="#linearGradient3174"
       id="linearGradient3176"
       x1="4.0745831"
       y1="0.61405271"
       x2="6.5748959"
       y2="3.5310841"
       gradientUnits="userSpaceOnUse"
       gradientTransform="matrix(1.2222221,0,0,1.222222,-1.1822802,-0.45609425)" />
  </defs>
  <g
     inkscape:label="Ebene 1"
     inkscape:groupmode="layer"
     id="layer1"
     transform="matrix(1.2698412,0,0,1.2698412,-3.5865737,0.54316723)">
    <path
       id="path3002"
       style="fill:url(#linearGradient3176);fill-opacity:1;stroke:none;stroke-width:0.254662;stroke-dasharray:none;stroke-opacity:1"
       d="m 5.3247397,-0.21938483 a 2.2919531,2.2919531 0 0 0 -0.269583,0.0213876 L 4.827354,0.37349885 A 1.7710546,1.7710546 0 0 0 4.4757024,0.51973022 L 3.9096774,0.27650864 A 2.2919531,2.2919531 0 0 0 3.5281827,0.65800344 L 3.7714043,1.2240284 A 1.7710546,1.7710546 0 0 0 3.6251728,1.5756799 L 3.0536769,1.8034826 a 2.2919531,2.2919531 0 0 0 -0.020891,0.2690857 2.2919531,2.2919531 0 0 0 0.020891,0.2695829 L 3.6251728,2.5699537 A 1.7710546,1.7710546 0 0 0 3.7714043,2.9216054 L 3.5281827,3.4876303 A 2.2919531,2.2919531 0 0 0 3.9096774,3.869125 L 4.4757024,3.6259034 A 1.7710546,1.7710546 0 0 0 4.827354,3.7721349 l 0.2278027,0.571496 a 2.2919531,2.2919531 0 0 0 0.269583,0.020891 2.2919531,2.2919531 0 0 0 0.2690855,-0.020891 L 5.821628,3.7721349 A 1.7710546,1.7710546 0 0 0 6.1732796,3.6259034 L 6.7393046,3.869125 A 2.2919531,2.2919531 0 0 0 7.1207992,3.4876303 L 6.8775776,2.9216054 A 1.7710546,1.7710546 0 0 0 7.0238092,2.5699537 L 7.595305,2.3421512 A 2.2919531,2.2919531 0 0 0 7.6166928,2.0725683 2.2919531,2.2919531 0 0 0 7.595305,1.8034826 L 7.0243065,1.5756799 A 1.7710546,1.7710546 0 0 0 6.8780749,1.2225362 L 7.1207992,0.65800344 A 2.2919531,2.2919531 0 0 0 6.7393046,0.27650864 L 6.1747716,0.51923285 A 1.7710546,1.7710546 0 0 0 5.821628,0.37300146 L 5.5938252,-0.19799724 A 2.2919531,2.2919531 0 0 0 5.3247397,-0.21938483 Z M 5.3257344,1.3130604 A 0.76398435,0.76398432 0 0 1 6.0897188,2.0770447 0.76398435,0.76398432 0 0 1 5.3257344,2.841029 0.76398435,0.76398432 0 0 1 4.56175,2.0770447 0.76398435,0.76398432 0 0 1 5.3257344,1.3130604 Z" />
  </g>
  <g
     inkscape:groupmode="layer"
     id="layer3"
     inkscape:label="Dots"
     style="display:none"
     transform="matrix(0.12500001,0,0,0.125,2.1166663,2.1166668)"
     sodipodi:insensitive="true">
    <rect
       style="fill:#000000;fill-opacity:1;stroke-width:1;stroke-dashoffset:68.0315"
       id="rect9386"
       width="4.2333331"
       height="4.2333331"
       x="27.516666"
       y="27.516666"
       ry="2.7838135e-07" />
    <rect
       style="fill:#000000;fill-opacity:1;stroke-width:1;stroke-dashoffset:68.0315"
       id="rect9388"
       width="4.2333331"
       height="4.2333331"
       x="21.166666"
       y="27.516666"
       ry="2.7838135e-07" />
    <rect
       style="fill:#000000;fill-opacity:1;stroke-width:1;stroke-dashoffset:68.0315"
       id="rect9390"
       width="4.2333331"
       height="4.2333331"
       x="14.816668"
       y="27.516666"
       ry="2.7838135e-07" />
  </g>
</svg>
