<?xml version="1.0" encoding="UTF-8" standalone="no"?>
<!-- Created with Inkscape (http://www.inkscape.org/) -->

<svg
   width="128"
   height="128"
   viewBox="0 0 128 128.00001"
   version="1.1"
   id="svg138"
   inkscape:version="1.2.2 (732a01da63, 2022-12-09)"
   sodipodi:docname="delete.svg"
   xmlns:inkscape="http://www.inkscape.org/namespaces/inkscape"
   xmlns:sodipodi="http://sodipodi.sourceforge.net/DTD/sodipodi-0.dtd"
   xmlns="http://www.w3.org/2000/svg"
   xmlns:svg="http://www.w3.org/2000/svg">
  <sodipodi:namedview
     id="namedview140"
     pagecolor="#ffffff"
     bordercolor="#000000"
     borderopacity="0.25"
     inkscape:showpageshadow="2"
     inkscape:pageopacity="0.0"
     inkscape:pagecheckerboard="0"
     inkscape:deskcolor="#d1d1d1"
     inkscape:document-units="px"
     showgrid="true"
     showguides="true"
     inkscape:lockguides="true"
     inkscape:zoom="2.587745"
     inkscape:cx="-60.09093"
     inkscape:cy="159.98485"
     inkscape:window-width="2560"
     inkscape:window-height="1417"
     inkscape:window-x="-8"
     inkscape:window-y="-8"
     inkscape:window-maximized="1"
     inkscape:current-layer="layer3">
    <inkscape:grid
       type="xygrid"
       id="grid259"
       empspacing="4"
       originx="0"
       originy="0" />
    <inkscape:grid
       type="xygrid"
       id="grid261"
       spacingy="16.000001"
       spacingx="16.000001"
       color="#e5001f"
       opacity="0.14901961"
       originx="0"
       originy="0" />
    <sodipodi:guide
       position="-68,64.000005"
       orientation="0,-1"
       id="guide263"
       inkscape:locked="true" />
    <sodipodi:guide
       position="64.000007,63.999998"
       orientation="1,0"
       id="guide315"
       inkscape:locked="true" />
  </sodipodi:namedview>
  <defs
     id="defs135" />
  <g
     inkscape:groupmode="layer"
     id="layer3"
     inkscape:label="Dots"
     style="display:inline">
    <path
       style="color:#000000;fill:#a40000;stroke-linecap:round;stroke-linejoin:round;-inkscape-stroke:none"
       d="m 37.859375,12 c -1.337377,1.08e-4 -2.586239,0.668513 -3.328125,1.78125 l -32,48 c -0.895579,1.343607 -0.895579,3.093893 0,4.4375 l 32,48 c 0.741886,1.11274 1.990748,1.78114 3.328125,1.78125 H 112 c 2,0 3.55355,0.0177 5.06641,-0.15039 1.51285,-0.1681 3.31891,-0.57868 4.76172,-2.02148 1.4428,-1.44281 1.85338,-3.24887 2.02148,-4.76172 C 124.0177,107.55355 124,106 124,104 V 24 c 0,-1.999999 0.0177,-3.55355 -0.15039,-5.066406 -0.1681,-1.512857 -0.57868,-3.318913 -2.02148,-4.761719 -1.44281,-1.442806 -3.24887,-1.85339 -4.76172,-2.021484 C 115.55355,11.982296 114,12 112,12 Z M 40,20 h 72 c 1.86742,0 3.13084,0.02492 3.90625,0.09375 C 115.97508,20.869156 116,22.13258 116,24 v 80 c 0,1.86742 -0.0249,3.13084 -0.0937,3.90625 C 115.13084,107.97508 113.86742,108 112,108 H 40 L 10.666016,64 Z"
       id="path356"
       sodipodi:nodetypes="ccccccssssssssssccscsscsccc" />
    <path
       id="path504"
       style="color:#000000;fill:#a40000;stroke-linecap:round;stroke-linejoin:round;-inkscape-stroke:none"
       d="m 49.6875,31.999998 a 8,8 0 0 0 -5.65625,2.34375 8,8 0 0 0 0,11.3125 L 62.375,63.999998 44.03125,82.343748 a 8,8 0 0 0 0,11.3125 8,8 0 0 0 11.3125,0 l 18.34375,-18.34375 18.34375,18.34375 a 8,8 0 0 0 11.3125,0 8,8 0 0 0 0,-11.3125 L 85,63.999998 103.34375,45.656248 a 8,8 0 0 0 0,-11.3125 8,8 0 0 0 -5.65625,-2.34375 8,8 0 0 0 -5.65625,2.34375 L 73.6875,52.687498 55.34375,34.343748 a 8,8 0 0 0 -5.65625,-2.34375 z" />
  </g>
  <g
     inkscape:label="Ebene 1"
     inkscape:groupmode="layer"
     id="layer1" />
</svg>
