<?xml version="1.0" encoding="UTF-8" standalone="no"?>
<!-- Created with Inkscape (http://www.inkscape.org/) -->

<svg
   width="128"
   height="128"
   viewBox="0 0 128 128.00001"
   version="1.1"
   id="svg138"
   inkscape:version="1.2.2 (732a01da63, 2022-12-09)"
   sodipodi:docname="help.svg"
   xmlns:inkscape="http://www.inkscape.org/namespaces/inkscape"
   xmlns:sodipodi="http://sodipodi.sourceforge.net/DTD/sodipodi-0.dtd"
   xmlns="http://www.w3.org/2000/svg"
   xmlns:svg="http://www.w3.org/2000/svg">
  <sodipodi:namedview
     id="namedview140"
     pagecolor="#ffffff"
     bordercolor="#000000"
     borderopacity="0.25"
     inkscape:showpageshadow="2"
     inkscape:pageopacity="0.0"
     inkscape:pagecheckerboard="0"
     inkscape:deskcolor="#d1d1d1"
     inkscape:document-units="px"
     showgrid="true"
     showguides="true"
     inkscape:lockguides="true"
     inkscape:zoom="1.829812"
     inkscape:cx="-86.620921"
     inkscape:cy="183.62542"
     inkscape:window-width="2560"
     inkscape:window-height="1417"
     inkscape:window-x="-8"
     inkscape:window-y="-8"
     inkscape:window-maximized="1"
     inkscape:current-layer="layer3">
    <inkscape:grid
       type="xygrid"
       id="grid259"
       empspacing="4"
       originx="0"
       originy="0" />
    <inkscape:grid
       type="xygrid"
       id="grid261"
       spacingy="16.000001"
       spacingx="16.000001"
       color="#e5001f"
       opacity="0.14901961"
       originx="0"
       originy="0" />
    <sodipodi:guide
       position="-68,64.000005"
       orientation="0,-1"
       id="guide263"
       inkscape:locked="true" />
    <sodipodi:guide
       position="64.000007,63.999998"
       orientation="1,0"
       id="guide315"
       inkscape:locked="true" />
  </sodipodi:namedview>
  <defs
     id="defs135" />
  <g
     inkscape:groupmode="layer"
     id="layer3"
     inkscape:label="Dots"
     style="display:inline">
    <g
       aria-label="?"
       id="text3321"
       style="font-weight:bold;font-size:155.741px;font-family:Arial;-inkscape-font-specification:'Arial, Bold';fill:#75507b;stroke-width:4.86691;stroke-linecap:round;stroke-linejoin:round">
      <path
         d="M 73.049265,91.878409 H 53.657686 q -0.07605,-4.182498 -0.07605,-5.095043 0,-9.42963 3.117861,-15.513263 3.117862,-6.083633 12.471447,-13.688174 9.353586,-7.604541 11.178675,-9.961948 2.813681,-3.726225 2.813681,-8.212904 0,-6.235724 -5.018997,-10.646358 -4.942952,-4.486679 -13.383992,-4.486679 -8.136859,0 -13.612128,4.63877 -5.47527,4.63877 -7.528496,14.144446 L 23.999977,40.623803 Q 24.836476,27.011675 35.558879,17.505999 46.357327,8.0003228 63.847771,8.0003228 q 18.402989,0 29.277482,9.6577672 10.874497,9.581721 10.874497,22.35735 0,7.072223 -4.03041,13.383992 -3.954361,6.311769 -17.034172,17.186262 -6.768041,5.627361 -8.44104,9.049404 -1.596954,3.422043 -1.444863,12.243311 z M 53.657686,120.62357 V 99.254813 h 21.36876 v 21.368757 z"
         id="path10177" />
    </g>
  </g>
  <g
     inkscape:label="Ebene 1"
     inkscape:groupmode="layer"
     id="layer1" />
</svg>
