<?xml version="1.0" encoding="UTF-8" standalone="no"?>
<!-- Created with Inkscape (http://www.inkscape.org/) -->

<svg
   width="128"
   height="128"
   viewBox="0 0 128 128.00001"
   version="1.1"
   id="svg138"
   inkscape:version="1.2.2 (732a01da63, 2022-12-09)"
   sodipodi:docname="saveas.svg"
   xmlns:inkscape="http://www.inkscape.org/namespaces/inkscape"
   xmlns:sodipodi="http://sodipodi.sourceforge.net/DTD/sodipodi-0.dtd"
   xmlns="http://www.w3.org/2000/svg"
   xmlns:svg="http://www.w3.org/2000/svg">
  <sodipodi:namedview
     id="namedview140"
     pagecolor="#ffffff"
     bordercolor="#000000"
     borderopacity="0.25"
     inkscape:showpageshadow="2"
     inkscape:pageopacity="0.0"
     inkscape:pagecheckerboard="0"
     inkscape:deskcolor="#d1d1d1"
     inkscape:document-units="px"
     showgrid="true"
     showguides="true"
     inkscape:lockguides="true"
     inkscape:zoom="3.6596241"
     inkscape:cx="113.8095"
     inkscape:cy="173.78834"
     inkscape:window-width="2560"
     inkscape:window-height="1417"
     inkscape:window-x="-8"
     inkscape:window-y="-8"
     inkscape:window-maximized="1"
     inkscape:current-layer="layer1">
    <inkscape:grid
       type="xygrid"
       id="grid259"
       empspacing="4"
       originx="0"
       originy="0" />
    <inkscape:grid
       type="xygrid"
       id="grid261"
       spacingy="16.000001"
       spacingx="16.000001"
       color="#e5001f"
       opacity="0.14901961"
       originx="0"
       originy="0" />
    <sodipodi:guide
       position="-68,64.000005"
       orientation="0,-1"
       id="guide263"
       inkscape:locked="true" />
    <sodipodi:guide
       position="64.000007,63.999998"
       orientation="1,0"
       id="guide315"
       inkscape:locked="true" />
  </sodipodi:namedview>
  <defs
     id="defs135" />
  <g
     inkscape:groupmode="layer"
     id="layer3"
     inkscape:label="Dots">
    <path
       id="rect2992"
       style="fill:#000000;stroke-linecap:round;stroke-linejoin:round"
       d="M 80 112 L 80 124 L 92 124 L 92 112 L 80 112 z M 96 112 L 96 124 L 108 124 L 108 112 L 96 112 z M 112 112 L 112 124 L 124 124 L 124 112 L 112 112 z " />
  </g>
  <g
     inkscape:label="Ebene 1"
     inkscape:groupmode="layer"
     id="layer1">
    <g
       id="g3002">
      <path
         id="rect2929"
         style="fill:#3465a4;stroke-linecap:round;stroke-linejoin:round"
         d="M 16 16 L 16 103.85547 L 24 112 L 76 112 L 76 108 L 78 108 L 112 108 L 112 16 L 16 16 z " />
      <path
         id="rect2867"
         style="fill:#babdb6;stroke-width:0.966092;stroke-linecap:round;stroke-linejoin:round"
         d="M 36 76 L 36 112 L 76 112 L 76 108 L 92 108 L 92 76 L 36 76 z M 44 84 L 56 84 L 56 104 L 44 104 L 44 84 z " />
      <rect
         style="fill:#eeeeec;stroke-linecap:round;stroke-linejoin:round"
         id="rect2921"
         width="72"
         height="39.999996"
         x="28"
         y="24" />
    </g>
  </g>
</svg>
