<?xml version="1.0" encoding="UTF-8" standalone="no"?>
<!-- Created with Inkscape (http://www.inkscape.org/) -->

<svg
   width="128"
   height="128"
   viewBox="0 0 128 128.00001"
   version="1.1"
   id="svg138"
   inkscape:version="1.2.2 (732a01da63, 2022-12-09)"
   sodipodi:docname="testimage2.svg"
   inkscape:export-filename="testimage256.jpg"
   inkscape:export-xdpi="192"
   inkscape:export-ydpi="192"
   xmlns:inkscape="http://www.inkscape.org/namespaces/inkscape"
   xmlns:sodipodi="http://sodipodi.sourceforge.net/DTD/sodipodi-0.dtd"
   xmlns:xlink="http://www.w3.org/1999/xlink"
   xmlns="http://www.w3.org/2000/svg"
   xmlns:svg="http://www.w3.org/2000/svg">
  <sodipodi:namedview
     id="namedview140"
     pagecolor="#ffffff"
     bordercolor="#000000"
     borderopacity="0.25"
     inkscape:showpageshadow="2"
     inkscape:pageopacity="0.0"
     inkscape:pagecheckerboard="0"
     inkscape:deskcolor="#d1d1d1"
     inkscape:document-units="px"
     showgrid="true"
     showguides="true"
     inkscape:lockguides="true"
     inkscape:zoom="1.829812"
     inkscape:cx="44.540094"
     inkscape:cy="7.377807"
     inkscape:window-width="1346"
     inkscape:window-height="1048"
     inkscape:window-x="424"
     inkscape:window-y="191"
     inkscape:window-maximized="0"
     inkscape:current-layer="g25">
    <inkscape:grid
       type="xygrid"
       id="grid259"
       empspacing="4"
       originx="0"
       originy="0"
       spacingy="1"
       spacingx="1"
       units="px"
       visible="true" />
    <inkscape:grid
       type="xygrid"
       id="grid261"
       spacingy="16.000001"
       spacingx="16.000001"
       color="#e5001f"
       opacity="0.14901961"
       originx="0"
       originy="0"
       units="px"
       visible="true" />
    <sodipodi:guide
       position="-68,64.000005"
       orientation="0,-1"
       id="guide263"
       inkscape:locked="true" />
    <sodipodi:guide
       position="64.000007,63.999998"
       orientation="1,0"
       id="guide315"
       inkscape:locked="true" />
  </sodipodi:namedview>
  <defs
     id="defs135">
    <linearGradient
       inkscape:collect="always"
       id="linearGradient1738">
      <stop
         style="stop-color:#ff2a2a;stop-opacity:1"
         offset="0"
         id="stop1734" />
      <stop
         style="stop-color:#ffff00;stop-opacity:1"
         offset="0.24999985"
         id="stop1744" />
      <stop
         style="stop-color:#00ff00;stop-opacity:1"
         offset="0.49999991"
         id="stop1742" />
      <stop
         style="stop-color:#00ffff;stop-opacity:1"
         offset="0.74999982"
         id="stop1746" />
      <stop
         style="stop-color:#ff00ff;stop-opacity:1"
         offset="1"
         id="stop1736" />
    </linearGradient>
    <radialGradient
       inkscape:collect="always"
       xlink:href="#linearGradient1738"
       id="radialGradient1740-5"
       cx="64.000008"
       cy="64.000008"
       fx="64.000008"
       fy="64.000008"
       r="64.000008"
       gradientUnits="userSpaceOnUse"
       gradientTransform="matrix(0.62499931,-6.7425947e-8,6.95734e-8,0.62499941,56.000055,56.000059)" />
  </defs>
  <g
     inkscape:label="Ebene 1"
     inkscape:groupmode="layer"
     id="layer1">
    <rect
       style="fill:#ffffff;fill-opacity:1;stroke:none;stroke-width:1;stroke-linecap:round;stroke-linejoin:round;stroke-dasharray:none;stroke-opacity:1;paint-order:markers fill stroke"
       id="rect25"
       width="128"
       height="127.99999"
       x="0"
       y="0" />
    <path
       id="rect1-0-6"
       style="fill:#000000;stroke-width:12;stroke-linecap:round;stroke-linejoin:round;paint-order:markers fill stroke"
       d="m 0,32.000001 v 1 h 32 v -1 z m 0,2 v 2 h 32 v -2 z m 0,4 v 3 h 32 v -3 z m 0,6 v 4.000001 h 32 v -4.000001 z m 0,8.000001 v 3 h 32 v -3 z m 0,6 v 2 h 32 v -2 z m 0,4 v 1 h 32 v -1 z" />
    <path
       id="rect1-0-6-9"
       style="fill:#000000;stroke-width:12;stroke-linecap:round;stroke-linejoin:round;paint-order:markers fill stroke"
       d="m 32,32.000002 v 32 h 1 v -32 z m 2,0 v 32 h 2 v -32 z m 4,0 v 32 h 3 v -32 z m 6,0 v 32 h 4 v -32 z m 8,0 v 32 h 3 v -32 z m 6,0 v 32 h 2 v -32 z m 4,0 v 32 h 1 v -32 z" />
    <path
       id="rect1-08"
       style="fill:#000000;stroke-width:8.48528;stroke-linecap:round;stroke-linejoin:round;paint-order:markers fill stroke"
       d="m 32.000004,0 v 1 h 32 V 0 Z m 0,2 v 1 h 32 V 2 Z m 0,2 v 1 h 32 V 4 Z m 0,2 v 1 h 32 V 6 Z m 0,2 v 1 h 32 V 8 Z m 0,2 v 1 h 32 v -1 z m 0,2 v 1 h 32 v -1 z m 0,2 v 1 h 32 v -1 z m 0,2 v 1 h 32 v -1 z m 0,2 v 2 h 32 v -2 z m 0,4 v 2 h 32 v -2 z m 0,4 v 2 h 32 v -2 z m 0,4 v 2 h 32 v -2 z" />
    <g
       id="g26"
       transform="translate(-3.8146973e-5,-64.000053)">
      <rect
         style="fill:url(#radialGradient1740-5);fill-opacity:1;stroke-width:0.5;stroke-linecap:round;stroke-linejoin:round"
         id="rect1023-0"
         width="63.999954"
         height="63.999954"
         x="64.000046"
         y="64.000053" />
      <path
         id="path68"
         style="stroke-width:13.4164;stroke-linecap:round;stroke-linejoin:round;paint-order:markers fill stroke"
         d="m 64.886768,64.000054 -0.88672,0.886719 v 1.414062 l 2.30079,-2.300781 z m 5.656252,0 -6.542972,6.542969 v 1.414062 l 7.957042,-7.957031 z m 5.65821,0 -12.201182,12.201172 v 1.414063 L 77.61529,64.000054 Z m 5.65625,0 -17.857432,17.857422 v 1.414063 L 83.27154,64.000054 Z m 5.65625,0 -23.513682,23.513672 v 1.414063 L 88.92779,64.000054 Z m 5.6582,0 -29.171882,29.171875 v 1.414063 L 94.58599,64.000054 Z m 2.82812,2.828125 -29.171872,29.171875 H 68.24224 L 96.00005,68.242242 Z m 0,5.658203 -23.51367,23.513672 h 1.41407 l 22.0996,-22.099609 z m 0,5.65625 -17.85742,17.857422 H 79.5567 L 96.00005,79.556695 Z m 0,5.65625 -12.20117,12.201172 h 1.41407 l 10.7871,-10.787109 z m 0,5.65625 -6.54492,6.544922 h 1.41602 l 5.1289,-5.128906 z m 0,5.658203 -0.88671,0.886719 h 0.88671 z" />
      <path
         id="path68-3"
         style="stroke-width:13.4164;stroke-linecap:round;stroke-linejoin:round;paint-order:markers fill stroke"
         d="m 128.00005,64.886769 -0.88672,-0.88672 h -1.41406 l 2.30078,2.30079 z m 0,5.656252 -6.54297,-6.542972 h -1.41406 l 7.95703,7.957042 z m 0,5.65821 -12.20117,-12.201182 h -1.41407 l 13.61524,13.615242 z m 0,5.65625 -17.85742,-17.857432 h -1.41407 l 19.27149,19.271492 z m 0,5.65625 -23.51367,-23.513682 h -1.41407 l 24.92774,24.927742 z m 0,5.6582 -29.171875,-29.171882 h -1.414063 l 30.585938,30.585942 z m -2.82813,2.82812 -29.17187,-29.171872 v 1.414062 l 27.75781,27.75781 z m -5.6582,0 -23.51367,-23.51367 v 1.41407 l 22.09961,22.0996 z m -5.65625,0 -17.85742,-17.85742 v 1.41407 l 16.44336,16.44335 z m -5.65625,0 -12.20117,-12.20117 v 1.41407 l 10.78711,10.7871 z m -5.65625,0 -6.54492,-6.54492 v 1.41602 l 5.1289,5.1289 z m -5.658201,0 -0.886719,-0.88671 v 0.88671 z" />
      <path
         id="rect2-8-3"
         style="fill:#000000;stroke-width:16.9706;stroke-linecap:round;stroke-linejoin:round;paint-order:markers fill stroke"
         d="m 64.887301,127.99999 h 2.828427 l -3.715072,-3.71508 v 2.82843 z m 5.656854,0 h 2.828428 l -9.371926,-9.37193 v 2.82843 z m 5.656855,0 h 2.828427 L 64.000656,112.97121 v 2.82842 z m 5.656855,0 h 2.828426 L 64.000656,107.31435 v 2.82843 z m 5.656853,0 h 2.828427 L 64.000657,101.6575 v 2.82842 z m 5.656854,0 h 2.828429 L 64.000657,96.000638 v 2.82843 z m 2.828429,-2.82843 v -2.82843 L 69.65751,96.000638 h -2.828427 z m 0,-5.65685 v -2.82843 L 75.314365,96.000638 h -2.828427 z m 0,-5.65686 v -2.82843 L 80.971219,96.000638 h -2.828428 z m 0,-5.65685 v -2.82843 l -9.371928,-9.371932 h -2.828426 z m 0,-5.65686 v -2.828422 l -3.715073,-3.71508 H 89.4565 Z m 0,-5.656852 -3e-6,-0.88664 -0.886643,-1e-5 z" />
      <path
         id="rect2-8-3-6"
         style="fill:#000000;stroke-width:16.9706;stroke-linecap:round;stroke-linejoin:round;paint-order:markers fill stroke"
         d="m 127.99935,127.11334 v -2.82843 l -3.71508,3.71508 h 2.82843 z m 0,-5.65685 v -2.82843 l -9.37193,9.37192 h 2.82843 z m 0,-5.65686 v -2.82843 l -15.02878,15.02879 h 2.82842 z m 0,-5.65685 v -2.82843 l -20.68564,20.68564 h 2.82843 z m 0,-5.65686 v -2.82842 l -26.34249,26.34248 h 2.82842 z m 0,-5.65685 V 96.00064 L 96,127.99998 h 2.82843 z m -2.82843,-2.82843 h -2.82843 L 96,122.34313 v 2.82843 z m -5.65685,0 h -2.82843 L 96,116.68628 v 2.82842 z m -5.65686,0 h -2.82843 L 96,111.02942 v 2.82843 z m -5.65685,0 h -2.82843 L 96,105.37257 v 2.82842 z m -5.65686,0 H 99.71508 L 96,99.71571 v 2.82843 z m -5.65685,0 H 96.00001 L 96,96.88729 Z" />
    </g>
    <path
       id="rect1-08-9"
       style="fill:#000000;stroke-width:8.48528;stroke-linecap:round;stroke-linejoin:round;paint-order:markers fill stroke"
       d="M 0 0 L 0 32 L 1 32 L 1 0 L 0 0 z M 2 0 L 2 32 L 3 32 L 3 0 L 2 0 z M 4 0 L 4 32 L 5 32 L 5 0 L 4 0 z M 6 0 L 6 32 L 7 32 L 7 0 L 6 0 z M 8 0 L 8 32 L 9 32 L 9 0 L 8 0 z M 10 0 L 10 32 L 11 32 L 11 0 L 10 0 z M 12 0 L 12 32 L 13 32 L 13 0 L 12 0 z M 14 0 L 14 32 L 15 32 L 15 0 L 14 0 z M 16 0 L 16 32 L 17 32 L 17 0 L 16 0 z M 18 0 L 18 32 L 20 32 L 20 0 L 18 0 z M 22 0 L 22 32 L 24 32 L 24 0 L 22 0 z M 26 0 L 26 32 L 28 32 L 28 0 L 26 0 z M 30 0 L 30 32 L 32 32 L 32 0 L 30 0 z " />
    <g
       id="g25"
       transform="translate(0,64.000006)">
      <path
         id="path2"
         style="color:#000000;fill:#000000;stroke-linecap:round;stroke-linejoin:round;-inkscape-stroke:none;paint-order:markers fill stroke"
         d="m 64,62.902334 c 0.35957,0.37226 0.7254,0.73809 1.09766,1.09766 h 1.4414 C 65.65839,63.188804 64.81119,62.341604 64,61.460934 Z m 0,-2.95507 c 1.25905,1.44035 2.61238,2.79368 4.05273,4.05273 h 1.51758 C 67.54236,62.323324 65.67667,60.457634 64,58.429684 Z m 0,-3.14258 c 2.08784,2.68908 4.50623,5.10747 7.19531,7.19531 h 1.6543 C 69.45089,61.537384 66.46261,58.549104 64,55.150384 Z m 0,-3.40039 c 2.80578,4.18543 6.41027,7.78992 10.5957,10.5957 h 1.84375 C 71.37369,60.897594 67.1024,56.626304 64,51.560544 Z m 0,-3.84571 c 3.34252,6.07616 8.36525,11.09889 14.44141,14.44141 h 2.16601 C 73.36459,60.511014 67.48898,54.635404 64,47.392574 Z m 0,-4.67187 c 3.50196,8.68238 10.4309,15.61132 19.11328,19.11328 h 2.94336 C 75.54838,60.740684 67.25931,52.451614 64,41.943354 Z m 0,-7.23828 c 2.35445,13.41539 12.93618,23.99711 26.35156,26.35156 H 96 v -0.5 c -17.40284,0 -31.5,-14.09716 -31.5,-31.5 H 64 Z m 1.5,-5.64844 c 0,16.83871 13.66129,30.5 30.5,30.5 v -1 c -16.29827,0 -29.5,-13.20173 -29.5,-29.5 z m 2,0 c 0,15.73414 12.76586,28.5 28.5,28.5 v -1 c -15.19371,0 -27.5,-12.3063 -27.5,-27.5 z m 2,0 c 0,14.62959 11.87042,26.5 26.5,26.5 v -1 c -14.08914,0 -25.5,-11.41085 -25.5,-25.5 z m 2,0 c 0,13.52502 10.97499,24.5 24.5,24.5 v -1 c -12.98457,0 -23.5,-10.51542 -23.5,-23.5 z m 2,0 c 0,12.42045 10.07955,22.5 22.5,22.5 v -1 c -11.88001,0 -21.5,-9.61999 -21.5,-21.5 z m 2,0 c 0,11.31588 9.18412,20.5 20.5,20.5 v -1 c -10.77544,0 -19.5,-8.72456 -19.5,-19.5 z m 2,0 c 0,10.21132 8.28869,18.5 18.5,18.5 v -1 c -9.67087,0 -17.5,-7.82912 -17.5,-17.5 z m 2,0 c 0,9.10674 7.39325,16.5 16.5,16.5 v -1 c -8.56631,0 -15.5,-6.93369 -15.5,-15.5 z m 2,0 c 0,8.00218 6.49782,14.5 14.5,14.5 v -1 c -7.46174,0 -13.5,-6.03826 -13.5,-13.5 z m 2,0 c 0,6.89761 5.60238,12.5 12.5,12.5 v -1 c -6.35718,0 -11.5,-5.14283 -11.5,-11.5 z m 2,0 c 0,5.79304 4.70695,10.5 10.5,10.5 v -1 c -5.25261,0 -9.5,-4.2474 -9.5,-9.5 z m 2,0 c 0,4.68849 3.81152,8.5 8.5,8.5 v -1 c -4.14805,0 -7.5,-3.35195 -7.5,-7.5 z m 2,0 c 0,3.58392 2.91608,6.5 6.5,6.5 v -1 c -3.04348,0 -5.5,-2.45651 -5.5,-5.5 z m 2,0 c 0,2.47936 2.02065,4.5 4.5,4.5 v -1 c -1.93891,0 -3.5,-1.56108 -3.5,-3.5 z m 2,0 c 0,1.37479 1.12521,2.5 2.5,2.5 v -1 c -0.83435,0 -1.5,-0.66565 -1.5,-1.5 z" />
      <path
         id="path2-7"
         style="color:#000000;fill:#000000;stroke-width:3;stroke-linecap:round;stroke-linejoin:round;-inkscape-stroke:none;paint-order:markers fill stroke"
         d="M 125.44531,63.999998 C 126.33189,63.183694 127.1837,62.331885 128,61.44531 v -4.621093 c -2.08291,2.682252 -4.49353,5.092869 -7.17578,7.175781 z m -9.90429,0 C 120.61446,60.892694 124.89269,56.614458 128,51.541014 v -6.636719 c -3.49814,8.67875 -10.41696,15.597569 -19.0957,19.095703 z M 96,63.499998 c 17.3791,0 31.5,-14.12087 31.5,-31.5 h -3 c 0,15.75782 -12.74222,28.5 -28.5,28.5 z m 0,-6 c 14.06546,0 25.5,-11.434565 25.5,-25.5 h -3 c 0,12.444126 -10.05586,22.5 -22.5,22.5 z m 0,-6 c 10.75175,0 19.5,-8.74826 19.5,-19.5 h -3 c 0,9.130428 -7.36954,16.5 -16.5,16.5 z m 0,-6 c 7.43807,0 13.5,-6.061951 13.5,-13.5 h -3 c 0,5.816733 -4.68325,10.5 -10.5,10.5 z m 0,-6 c 4.12437,0 7.5,-3.375646 7.5,-7.5 h -3 c 0,2.503038 -1.99695,4.5 -4.5,4.5 z" />
      <path
         id="path2-3-7"
         style="color:#000000;fill:#000000;stroke-width:2;stroke-linecap:round;stroke-linejoin:round;-inkscape-stroke:none;paint-order:markers fill stroke"
         d="m 128,0.38867141 c -0.12891,-0.13048 -0.25819,-0.25976 -0.38867,-0.3886699953028 h -2.94922 C 125.83558,1.0516914 126.9483,2.1644214 128,3.3378914 Z m 0,6.02734999 c -1.89689,-2.36895 -4.04708,-4.51913 -6.41602,-6.4160199853028 h -3.3164 C 122.06075,2.6435314 125.35647,5.9392514 128,9.7324213 Z m 0,7.0781196 C 124.75599,7.9009914 120.09901,3.2440114 114.50586,1.4146972e-6 h -4.35352 C 118.10088,3.5178914 124.48211,9.8991113 128,17.847661 Z m 0,10.58203 C 125.0713,12.235441 115.76457,2.9287014 103.92383,1.4146972e-6 H 96 V 1.0000014 c 17.13262,0 31,13.8673796 31,30.9999996 h 1 z m -3,7.92383 C 125,15.995641 112.00436,3.0000014 96,3.0000014 v 2 c 14.92349,0 27,12.0765096 27,26.9999996 z m -4,0 C 121,18.204771 109.79523,7.0000014 96,7.0000014 v 2 c 12.71435,0 23,10.2856496 23,22.9999996 z m -4,0 c 0,-11.58609 -9.41391,-21 -21,-21 v 2 c 10.50523,0 19,8.49479 19,19 z m -4,0 c 0,-9.37697 -7.62303,-17 -17,-17 v 2 c 8.29609,0 15,6.70391 15,15 z m -4,0 c 0,-7.16783 -5.83217,-13 -13,-13 v 2 c 6.08696,0 11,4.91303 11,11 z m -4,0 c 0,-4.95872 -4.04131,-9 -9,-9 v 2 c 3.87782,0 7,3.12216 7,7 z m -4,0 c 0,-2.74958 -2.25042,-5 -5,-5 v 2 c 1.6687,0 3,1.3313 3,3 z" />
      <path
         id="path46"
         style="color:#000000;fill:#000000;stroke-linecap:round;stroke-linejoin:round;-inkscape-stroke:none;paint-order:markers fill stroke"
         d="m 68.052741,0.001231 c -1.44034,1.2590487 -2.79368,2.612386 -4.05273,4.052734 v 1.517579 c 1.67667,-2.027948 3.54236,-3.8936447 5.57031,-5.570313 z m 6.54297,0 c -4.18542,2.805777 -7.78992,6.410277 -10.5957,10.595703 v 1.84375 c 3.1024,-5.065758 7.3737,-9.337056 12.43945,-12.439453 z m 8.51758,0 c -8.68237,3.501956 -15.61132,10.430909 -19.11328,19.113281 v 2.94336 C 67.259321,11.549621 75.548401,3.260538 86.056651,0.001231 Z m 12.88672,1.5 c -16.83869,0 -30.5,13.661306 -30.5,30.5 h 1 c 0,-16.298257 13.20175,-29.5 29.5,-29.5 z m 0,4 c -14.62958,0 -26.5,11.870437 -26.5,26.5 h 1 c 0,-14.089126 11.41086,-25.5 25.5,-25.5 z m 0,4 c -12.42044,0 -22.5,10.079565 -22.5,22.5 h 1 c 0,-11.879995 9.62,-21.5 21.5,-21.5 z m 0,4 c -10.21131,0 -18.5,8.288696 -18.5,18.5 h 1 c 0,-9.670865 7.82913,-17.5 17.5,-17.5 z m 0,4 c -8.00217,0 -14.5,6.497826 -14.5,14.5 h 1 c 0,-7.461737 6.03827,-13.5 13.5,-13.5 z m 0,4 c -5.79303,0 -10.5,4.706957 -10.5,10.5 h 1 c 0,-5.252607 4.24741,-9.5 9.5,-9.5 z m 0,4 c -3.58392,0 -6.5,2.916087 -6.5,6.5 h 1 c 0,-3.043476 2.45651,-5.5 5.5,-5.5 z m 0,4 c -1.37479,0 -2.5,1.125215 -2.5,2.5 h 1 c 0,-0.834346 0.66565,-1.5 1.5,-1.5 z" />
    </g>
    <rect
       style="fill:none;stroke:none;stroke-width:1;stroke-linecap:round;stroke-linejoin:round;stroke-dasharray:none;stroke-opacity:1;paint-order:markers fill stroke"
       id="rect24"
       width="32.000004"
       height="31.999998"
       x="80.000008"
       y="-111.99999" />
    <rect
       style="fill:#00ffff;stroke-width:0.5;stroke-linecap:round;stroke-linejoin:round"
       id="rect235"
       width="15.999998"
       height="15.999998"
       x="0"
       y="64.000008" />
    <rect
       style="fill:#ff00ff;stroke-width:0.5;stroke-linecap:round;stroke-linejoin:round"
       id="rect235-8"
       width="15.999998"
       height="15.999998"
       x="15.999998"
       y="64.000008" />
    <rect
       style="fill:#008080;stroke-width:0.5;stroke-linecap:round;stroke-linejoin:round"
       id="rect235-9"
       width="15.999998"
       height="15.999998"
       x="32"
       y="64.000008" />
    <rect
       style="fill:#008000;stroke-width:0.5;stroke-linecap:round;stroke-linejoin:round"
       id="rect235-5"
       width="15.999998"
       height="15.999998"
       x="48"
       y="64.000008" />
    <rect
       style="fill:#000000;stroke-width:0.5;stroke-linecap:round;stroke-linejoin:round"
       id="rect235-6"
       width="15.999998"
       height="15.999998"
       x="0"
       y="80.000008" />
    <rect
       style="fill:#800000;stroke-width:0.5;stroke-linecap:round;stroke-linejoin:round"
       id="rect235-8-0"
       width="15.999998"
       height="15.999998"
       x="15.999998"
       y="80.000008" />
    <rect
       style="fill:#ffff00;stroke-width:0.5;stroke-linecap:round;stroke-linejoin:round"
       id="rect235-9-7"
       width="15.999998"
       height="15.999998"
       x="32"
       y="80.000008" />
    <rect
       style="fill:#666666;stroke-width:0.5;stroke-linecap:round;stroke-linejoin:round"
       id="rect235-5-3"
       width="15.999998"
       height="15.999998"
       x="48"
       y="80.000008" />
    <rect
       style="fill:#b3b3b3;stroke-width:0.5;stroke-linecap:round;stroke-linejoin:round"
       id="rect235-0"
       width="15.999998"
       height="15.999998"
       x="0"
       y="96.000015" />
    <rect
       style="fill:#00ff00;stroke-width:0.5;stroke-linecap:round;stroke-linejoin:round"
       id="rect235-8-3"
       width="15.999998"
       height="15.999998"
       x="15.999998"
       y="96.000015" />
    <rect
       style="fill:#000080;stroke-width:0.5;stroke-linecap:round;stroke-linejoin:round"
       id="rect235-9-70"
       width="15.999998"
       height="15.999998"
       x="32"
       y="96.000015" />
    <rect
       style="fill:#ffffff;stroke-width:0.5;stroke-linecap:round;stroke-linejoin:round"
       id="rect235-5-38"
       width="15.999998"
       height="15.999998"
       x="48"
       y="96.000015" />
    <rect
       style="fill:#808000;stroke-width:0.5;stroke-linecap:round;stroke-linejoin:round"
       id="rect235-6-9"
       width="15.999998"
       height="15.999998"
       x="0"
       y="112" />
    <rect
       style="fill:#800080;stroke-width:0.5;stroke-linecap:round;stroke-linejoin:round"
       id="rect235-8-0-9"
       width="15.999998"
       height="15.999998"
       x="15.999998"
       y="112" />
    <rect
       style="fill:#0000ff;stroke-width:0.5;stroke-linecap:round;stroke-linejoin:round"
       id="rect235-9-7-7"
       width="15.999998"
       height="15.999998"
       x="32"
       y="112" />
    <rect
       style="fill:#ff0000;stroke-width:0.5;stroke-linecap:round;stroke-linejoin:round"
       id="rect235-5-3-7"
       width="15.999998"
       height="15.999998"
       x="48"
       y="112" />
  </g>
</svg>
