<?xml version="1.0" encoding="UTF-8" standalone="no"?>
<!-- Created with Inkscape (http://www.inkscape.org/) -->

<svg
   width="128"
   height="128"
   viewBox="0 0 128 128.00001"
   version="1.1"
   id="svg138"
   inkscape:version="1.2.2 (732a01da63, 2022-12-09)"
   sodipodi:docname="about.svg"
   xmlns:inkscape="http://www.inkscape.org/namespaces/inkscape"
   xmlns:sodipodi="http://sodipodi.sourceforge.net/DTD/sodipodi-0.dtd"
   xmlns="http://www.w3.org/2000/svg"
   xmlns:svg="http://www.w3.org/2000/svg">
  <sodipodi:namedview
     id="namedview140"
     pagecolor="#ffffff"
     bordercolor="#000000"
     borderopacity="0.25"
     inkscape:showpageshadow="2"
     inkscape:pageopacity="0.0"
     inkscape:pagecheckerboard="0"
     inkscape:deskcolor="#d1d1d1"
     inkscape:document-units="px"
     showgrid="true"
     showguides="true"
     inkscape:lockguides="true"
     inkscape:zoom="7.319248"
     inkscape:cx="-7.3094941"
     inkscape:cy="49.048755"
     inkscape:window-width="2560"
     inkscape:window-height="1417"
     inkscape:window-x="-8"
     inkscape:window-y="-8"
     inkscape:window-maximized="1"
     inkscape:current-layer="layer3">
    <inkscape:grid
       type="xygrid"
       id="grid259"
       empspacing="4"
       originx="0"
       originy="0" />
    <inkscape:grid
       type="xygrid"
       id="grid261"
       spacingy="16.000001"
       spacingx="16.000001"
       color="#e5001f"
       opacity="0.14901961"
       originx="0"
       originy="0" />
    <sodipodi:guide
       position="-68,64.000005"
       orientation="0,-1"
       id="guide263"
       inkscape:locked="true" />
    <sodipodi:guide
       position="64.000007,63.999998"
       orientation="1,0"
       id="guide315"
       inkscape:locked="true" />
  </sodipodi:namedview>
  <defs
     id="defs135" />
  <g
     inkscape:groupmode="layer"
     id="layer3"
     inkscape:label="Dots"
     style="display:inline">
    <g
       aria-label="ยง"
       transform="scale(1.0670457,0.93716695)"
       id="text3321"
       style="font-weight:bold;font-size:136.439px;font-family:Arial;-inkscape-font-specification:'Arial, Bold';fill:#3465a4;stroke-width:4.26374;stroke-linecap:round;stroke-linejoin:round">
      <path
         d="m 88.253655,26.719815 -18.320666,1.931997 q -0.266482,-4.929924 -2.931306,-7.528128 -2.598204,-2.598203 -7.261646,-2.598203 -4.330339,0 -6.59544,1.931997 -2.2651,1.865377 -2.2651,4.263719 0,3.264409 3.064548,6.262336 2.065238,1.998618 13.657223,9.460126 11.591985,7.461508 15.322739,10.659297 5.795993,4.863304 8.260955,9.659987 2.531583,4.730063 2.531583,10.526055 0,6.195716 -3.064548,11.458744 -2.997927,5.196407 -9.060402,9.460126 4.063857,3.730753 6.062475,7.994472 1.998618,4.1971 1.998618,8.92716 0,9.85985 -7.394887,16.52191 -7.394887,6.66206 -21.251972,6.66206 -13.324121,0 -21.318593,-6.59544 -7.994473,-6.59544 -9.460126,-17.58784 l 18.254045,-2.19848 q 1.199171,5.99586 4.530201,8.99378 3.397651,3.06455 8.527437,3.06455 4.39696,0 6.995164,-2.33172 2.598203,-2.2651 2.598203,-5.52951 0,-3.13117 -2.464962,-5.59613 -2.531583,-2.46496 -17.787701,-12.12495 -15.189498,-9.726609 -19.786319,-16.122186 -4.596822,-6.395578 -4.596822,-14.32343 0,-6.528819 2.997927,-12.12495 2.997927,-5.596131 9.326885,-9.193643 -3.33103,-3.597513 -5.063166,-7.328267 -1.665515,-3.730753 -1.665515,-7.594748 0,-8.993782 6.995163,-15.189498 7.061784,-6.2623365 19.786319,-6.2623365 13.057639,0 20.519146,6.2623365 7.528128,6.195716 8.86054,16.188807 z M 71.531884,84.080154 q 2.931306,-2.664824 4.330339,-5.063166 1.465653,-2.464962 1.465653,-4.730063 0,-2.198479 -1.532273,-4.530201 -1.532274,-2.331721 -8.394196,-7.328266 L 49.213982,49.237579 q -2.265101,1.332412 -3.997236,3.797374 -1.732136,2.464962 -1.732136,5.263028 0,6.728681 8.993781,12.791155 z"
         id="path10022"
         style="fill:#3465a4" />
    </g>
  </g>
  <g
     inkscape:label="Ebene 1"
     inkscape:groupmode="layer"
     id="layer1" />
</svg>
