<?xml version="1.0" encoding="UTF-8" standalone="no"?>
<!-- Created with Inkscape (http://www.inkscape.org/) -->

<svg
   width="128"
   height="128"
   viewBox="0 0 128 128"
   version="1.1"
   id="svg1"
   inkscape:version="1.3 (0e150ed6c4, 2023-07-21)"
   sodipodi:docname="checked2.svg"
   xmlns:inkscape="http://www.inkscape.org/namespaces/inkscape"
   xmlns:sodipodi="http://sodipodi.sourceforge.net/DTD/sodipodi-0.dtd"
   xmlns="http://www.w3.org/2000/svg"
   xmlns:svg="http://www.w3.org/2000/svg">
  <sodipodi:namedview
     id="namedview1"
     pagecolor="#ffffff"
     bordercolor="#666666"
     borderopacity="1.0"
     inkscape:showpageshadow="2"
     inkscape:pageopacity="0.0"
     inkscape:pagecheckerboard="0"
     inkscape:deskcolor="#d1d1d1"
     inkscape:document-units="px"
     showgrid="true"
     showguides="true"
     inkscape:lockguides="true"
     guidecolor="#29e500"
     guideopacity="0.6"
     inkscape:zoom="6.8445724"
     inkscape:cx="66.622131"
     inkscape:cy="62.312147"
     inkscape:window-width="2560"
     inkscape:window-height="1417"
     inkscape:window-x="-8"
     inkscape:window-y="-8"
     inkscape:window-maximized="1"
     inkscape:current-layer="layer1">
    <inkscape:grid
       id="grid1"
       units="px"
       originx="0"
       originy="0"
       spacingx="1"
       spacingy="1"
       empcolor="#3f3fff"
       empopacity="0.25098039"
       color="#3f3fff"
       opacity="0.1254902"
       empspacing="4"
       dotted="false"
       gridanglex="30"
       gridanglez="30"
       visible="true" />
    <inkscape:grid
       id="grid2"
       units="px"
       originx="0"
       originy="0"
       spacingx="16"
       spacingy="16"
       empcolor="#3f3fff"
       empopacity="0.25098039"
       color="#bd0000"
       opacity="0.36078431"
       empspacing="4"
       dotted="false"
       gridanglex="30"
       gridanglez="30"
       visible="true" />
    <sodipodi:guide
       position="64,-60"
       orientation="1,0"
       id="guide2"
       inkscape:locked="true" />
    <sodipodi:guide
       position="-72,64"
       orientation="0,-1"
       id="guide3"
       inkscape:locked="true" />
  </sodipodi:namedview>
  <defs
     id="defs1" />
  <g
     inkscape:label="Ebene 1"
     inkscape:groupmode="layer"
     id="layer1">
    <path
       id="path1"
       style="fill:#005fd8;stroke:none;stroke-width:4;stroke-linecap:round;paint-order:markers fill stroke;fill-opacity:0.25"
       d="M 64 0 A 64 64 0 0 0 0 64 A 64 64 0 0 0 64 128 A 64 64 0 0 0 128 64 A 64 64 0 0 0 64 0 z M 64 16 A 48 48 0 0 1 112 64 A 48 48 0 0 1 64 112 A 48 48 0 0 1 16 64 A 48 48 0 0 1 64 16 z " />
    <path
       style="display:inline;fill:#4e9a06;fill-opacity:1;stroke:none;stroke-width:16;stroke-linecap:square;stroke-linejoin:round"
       d="m 86.271584,29.810559 c -14.959455,22.830125 -20.860888,33.373989 -29.924853,57.70185 0,0 -2.404752,-7.226153 -12.280319,-21.099617 l -13.288709,2.900025 c 9.129673,10.800422 20.90877,37.879063 20.90877,37.879063 l 12.954559,1.08599 C 67.308282,88.431319 84.26669,53.726669 97.728416,36.792034 Z"
       id="path297"
       sodipodi:nodetypes="cccccccc" />
  </g>
</svg>
