<?xml version="1.0" encoding="UTF-8" standalone="no"?>
<!-- Created with Inkscape (http://www.inkscape.org/) -->

<svg
   width="128"
   height="128"
   viewBox="0 0 128 128.00001"
   version="1.1"
   id="svg138"
   inkscape:version="1.2.2 (732a01da63, 2022-12-09)"
   sodipodi:docname="checked.svg"
   xmlns:inkscape="http://www.inkscape.org/namespaces/inkscape"
   xmlns:sodipodi="http://sodipodi.sourceforge.net/DTD/sodipodi-0.dtd"
   xmlns="http://www.w3.org/2000/svg"
   xmlns:svg="http://www.w3.org/2000/svg">
  <sodipodi:namedview
     id="namedview140"
     pagecolor="#ffffff"
     bordercolor="#000000"
     borderopacity="0.25"
     inkscape:showpageshadow="2"
     inkscape:pageopacity="0.0"
     inkscape:pagecheckerboard="0"
     inkscape:deskcolor="#d1d1d1"
     inkscape:document-units="px"
     showgrid="true"
     showguides="true"
     inkscape:lockguides="true"
     inkscape:zoom="7.3192481"
     inkscape:cx="-6.7629898"
     inkscape:cy="67.083393"
     inkscape:window-width="2560"
     inkscape:window-height="1417"
     inkscape:window-x="-8"
     inkscape:window-y="-8"
     inkscape:window-maximized="1"
     inkscape:current-layer="layer3">
    <inkscape:grid
       type="xygrid"
       id="grid259"
       empspacing="4"
       originx="0"
       originy="0" />
    <inkscape:grid
       type="xygrid"
       id="grid261"
       spacingy="16.000001"
       spacingx="16.000001"
       color="#e5001f"
       opacity="0.14901961"
       originx="0"
       originy="0" />
    <sodipodi:guide
       position="-68,64.000005"
       orientation="0,-1"
       id="guide263"
       inkscape:locked="true" />
    <sodipodi:guide
       position="64.000007,63.999998"
       orientation="1,0"
       id="guide315"
       inkscape:locked="true" />
  </sodipodi:namedview>
  <defs
     id="defs135" />
  <g
     inkscape:groupmode="layer"
     id="layer3"
     inkscape:label="Dots"
     style="display:inline">
    <path
       id="path397"
       style="fill:#4e9a06;fill-opacity:1;stroke:none;stroke-width:16;stroke-linecap:square;stroke-linejoin:round"
       d="M 64 0 C 28.653811 0 0 28.653811 0 64 C 0 99.346189 28.653811 128 64 128 C 99.346189 128 128 99.346189 128 64 C 128 28.653811 99.346189 0 64 0 z M 64 12 C 92.718778 12 116 35.281222 116 64 C 116 92.718778 92.718778 116 64 116 C 35.281222 116 12 92.718778 12 64 C 12 35.281222 35.281222 12 64 12 z M 95.181641 31.691406 C 73.454215 45.750327 59.876879 65.913703 52.251953 80.228516 C 48.520657 73.485633 43.249678 65.909631 35.794922 59.386719 L 25.259766 71.427734 C 39.014416 83.463054 44.267578 102.05469 44.267578 102.05469 L 59.570312 102.58594 C 59.570312 102.58594 72.735966 65.272519 103.87305 45.125 L 95.181641 31.691406 z " />
  </g>
  <g
     inkscape:label="Ebene 1"
     inkscape:groupmode="layer"
     id="layer1" />
</svg>
