<?xml version="1.0" encoding="UTF-8" standalone="no"?>
<!-- Created with Inkscape (http://www.inkscape.org/) -->

<svg
   width="128"
   height="128"
   viewBox="0 0 128 128.00001"
   version="1.1"
   id="svg138"
   inkscape:version="1.2.2 (732a01da63, 2022-12-09)"
   sodipodi:docname="checked.svg"
   xmlns:inkscape="http://www.inkscape.org/namespaces/inkscape"
   xmlns:sodipodi="http://sodipodi.sourceforge.net/DTD/sodipodi-0.dtd"
   xmlns="http://www.w3.org/2000/svg"
   xmlns:svg="http://www.w3.org/2000/svg">
  <sodipodi:namedview
     id="namedview140"
     pagecolor="#ffffff"
     bordercolor="#000000"
     borderopacity="0.25"
     inkscape:showpageshadow="2"
     inkscape:pageopacity="0.0"
     inkscape:pagecheckerboard="0"
     inkscape:deskcolor="#d1d1d1"
     inkscape:document-units="px"
     showgrid="true"
     showguides="true"
     inkscape:lockguides="true"
     inkscape:zoom="7.3192481"
     inkscape:cx="72.890001"
     inkscape:cy="60.115465"
     inkscape:window-width="2560"
     inkscape:window-height="1417"
     inkscape:window-x="-8"
     inkscape:window-y="-8"
     inkscape:window-maximized="1"
     inkscape:current-layer="layer3">
    <inkscape:grid
       type="xygrid"
       id="grid259"
       empspacing="4"
       originx="0"
       originy="0" />
    <inkscape:grid
       type="xygrid"
       id="grid261"
       spacingy="16.000001"
       spacingx="16.000001"
       color="#e5001f"
       opacity="0.14901961"
       originx="0"
       originy="0" />
    <sodipodi:guide
       position="-68,64.000005"
       orientation="0,-1"
       id="guide263"
       inkscape:locked="true" />
    <sodipodi:guide
       position="64.000007,63.999998"
       orientation="1,0"
       id="guide315"
       inkscape:locked="true" />
  </sodipodi:namedview>
  <defs
     id="defs135" />
  <g
     inkscape:groupmode="layer"
     id="layer3"
     inkscape:label="Dots"
     style="display:inline">
    <path
       style="fill:#4e9a06;fill-opacity:1;stroke:none;stroke-width:16;stroke-linecap:square;stroke-linejoin:round"
       d="M 111.30859,14.566406 C 89.581162,28.625327 67.624926,57.685187 60,72 56.268704,65.257117 47.454756,54.522912 40,48 l -7.999998,12 c 13.75465,12.03532 20.015623,33.826174 20.015623,33.826174 l 15.302734,0.53125 c 0,0 21.544554,-46.209905 52.681641,-66.357424 z"
       id="path365"
       sodipodi:nodetypes="cccccccc" />
    <path
       id="path397"
       style="fill:#4e9a06;fill-opacity:1;stroke:none;stroke-width:12;stroke-linecap:square;stroke-linejoin:round"
       d="M 64 16 C 37.490411 16 16 37.490411 16 64 C 16 90.50959 37.490411 112 64 112 C 90.509592 112 112 90.50959 112 64 C 112 57.632401 110.75741 51.556248 108.50586 45.996094 L 98.566406 53.947266 C 99.493225 57.139082 100 60.509247 100 64 C 100 83.882193 83.882192 100 64 100 C 44.117808 100 28 83.882193 28 64 C 28 44.117809 44.117808 28 64 28 C 70.865952 28 77.282818 29.922333 82.742188 33.257812 L 91.408203 24.591797 C 83.637019 19.176882 74.189775 16 64 16 z " />
  </g>
  <g
     inkscape:label="Ebene 1"
     inkscape:groupmode="layer"
     id="layer1" />
</svg>
