<?xml version="1.0" encoding="UTF-8" standalone="no"?>
<!-- Created with Inkscape (http://www.inkscape.org/) -->

<svg
   width="128"
   height="128"
   viewBox="0 0 128 128.00001"
   version="1.1"
   id="svg138"
   inkscape:version="1.3 (0e150ed6c4, 2023-07-21)"
   sodipodi:docname="cinema.svg"
   inkscape:export-filename="img32\cinema.png"
   inkscape:export-xdpi="24"
   inkscape:export-ydpi="24"
   xmlns:inkscape="http://www.inkscape.org/namespaces/inkscape"
   xmlns:sodipodi="http://sodipodi.sourceforge.net/DTD/sodipodi-0.dtd"
   xmlns:xlink="http://www.w3.org/1999/xlink"
   xmlns="http://www.w3.org/2000/svg"
   xmlns:svg="http://www.w3.org/2000/svg">
  <sodipodi:namedview
     id="namedview140"
     pagecolor="#ffffff"
     bordercolor="#000000"
     borderopacity="0.25"
     inkscape:showpageshadow="2"
     inkscape:pageopacity="0.0"
     inkscape:pagecheckerboard="0"
     inkscape:deskcolor="#d1d1d1"
     inkscape:document-units="px"
     showgrid="true"
     showguides="true"
     inkscape:lockguides="true"
     inkscape:zoom="7.3192482"
     inkscape:cx="40.441312"
     inkscape:cy="72.616748"
     inkscape:window-width="2214"
     inkscape:window-height="1237"
     inkscape:window-x="104"
     inkscape:window-y="104"
     inkscape:window-maximized="0"
     inkscape:current-layer="layer1">
    <inkscape:grid
       type="xygrid"
       id="grid259"
       empspacing="4"
       originx="0"
       originy="0"
       spacingy="1"
       spacingx="1"
       units="px"
       visible="true" />
    <inkscape:grid
       type="xygrid"
       id="grid261"
       spacingy="16.000001"
       spacingx="16.000001"
       color="#e5001f"
       opacity="0.14901961"
       originx="0"
       originy="0"
       units="px"
       visible="true" />
    <sodipodi:guide
       position="-68,64.000005"
       orientation="0,-1"
       id="guide263"
       inkscape:locked="true" />
    <sodipodi:guide
       position="64.000007,63.999998"
       orientation="1,0"
       id="guide315"
       inkscape:locked="true" />
  </sodipodi:namedview>
  <defs
     id="defs135">
    <linearGradient
       id="linearGradient1"
       inkscape:collect="always">
      <stop
         style="stop-color:#4f4a33;stop-opacity:1;"
         offset="0"
         id="stop1" />
      <stop
         style="stop-color:#ccbea7;stop-opacity:1;"
         offset="1"
         id="stop2" />
    </linearGradient>
    <linearGradient
       inkscape:collect="always"
       xlink:href="#linearGradient1611"
       id="linearGradient1681"
       x1="64.000008"
       y1="88"
       x2="64"
       y2="16.000002"
       gradientUnits="userSpaceOnUse"
       gradientTransform="matrix(1.3963534,0,0,1.0909091,1.6304047,-1.4545458)" />
    <linearGradient
       inkscape:collect="always"
       id="linearGradient1611">
      <stop
         style="stop-color:#d3e0f0;stop-opacity:1;"
         offset="0"
         id="stop1607" />
      <stop
         style="stop-color:#0774ff;stop-opacity:1;"
         offset="1"
         id="stop1609" />
    </linearGradient>
    <linearGradient
       inkscape:collect="always"
       xlink:href="#linearGradient1687"
       id="linearGradient1689"
       x1="64.000008"
       y1="64"
       x2="64.000008"
       y2="112"
       gradientUnits="userSpaceOnUse"
       gradientTransform="matrix(1.4015984,0,0,1,1.6304047,8.7272793)" />
    <linearGradient
       inkscape:collect="always"
       id="linearGradient1687">
      <stop
         style="stop-color:#4e9a06;stop-opacity:1"
         offset="0"
         id="stop1683" />
      <stop
         style="stop-color:#8ae234;stop-opacity:1"
         offset="1"
         id="stop1685" />
    </linearGradient>
    <linearGradient
       inkscape:collect="always"
       xlink:href="#linearGradient1"
       id="linearGradient2"
       x1="64.000008"
       y1="7.9999995"
       x2="64.000008"
       y2="92"
       gradientUnits="userSpaceOnUse"
       gradientTransform="matrix(1,0,0,0.952381,0,8.3809514)" />
  </defs>
  <g
     inkscape:label="Ebene 1"
     inkscape:groupmode="layer"
     id="layer1">
    <rect
       style="fill:url(#linearGradient2);stroke:none;stroke-width:0.975898;stroke-linecap:round;stroke-linejoin:bevel;paint-order:markers fill stroke"
       id="rect1"
       width="128.00002"
       height="79.999992"
       x="0"
       y="15.999999" />
    <g
       id="g801"
       style="display:inline"
       transform="matrix(0.44759437,0,0,0.45833329,23.27024,20.666663)">
      <rect
         style="fill:url(#linearGradient1681);fill-opacity:1;stroke-width:1.23421;stroke-linecap:round;stroke-linejoin:round"
         id="rect3673"
         width="178.73326"
         height="104.72728"
         x="1.6304047"
         y="16.000002"
         inkscape:export-filename="img256\imglarge.png"
         inkscape:export-xdpi="192"
         inkscape:export-ydpi="192" />
      <path
         style="fill:url(#linearGradient1689);fill-opacity:1;stroke-width:1.18389;stroke-linecap:round;stroke-linejoin:round"
         d="M 1.6304047,88.727284 C 91.332706,32.727279 91.332706,120.72728 181.03499,80.727279 v 40.000001 l -179.4045853,1e-5 z"
         id="path3781"
         sodipodi:nodetypes="ccccc" />
      <rect
         style="fill:#ffffff;fill-opacity:0.464646;stroke:none;stroke-width:4.61203;stroke-linecap:round;stroke-linejoin:round"
         id="rect2329"
         width="178.73326"
         height="104.72728"
         x="1.6304047"
         y="16.000004" />
      <g
         id="g1522"
         style="display:inline;fill:#fce94f"
         transform="translate(43.175475,8.2127803)">
        <path
           id="path411"
           style="display:inline;fill:#fce94f;stroke-width:3.46709;stroke-linecap:round;stroke-linejoin:round"
           d="m 94.94283,24.764711 0.02518,7.160431 A 9.919211,9.9192096 0 0 0 93.447198,33.80243 L 86.354575,35.53248 92,40 a 9.919211,9.9192096 0 0 0 0.499836,2.317065 l -3.080381,6.64316 6.95701,-1.615747 a 9.919211,9.9192096 0 0 0 2.177579,1.042292 l 3.274106,6.54823 3.09782,-6.493984 a 9.919211,9.9192096 0 0 0 2.16983,-0.999671 l 7.14106,1.51888 -3.1385,-6.453299 a 9.919211,9.9192096 0 0 0 0.53858,-2.319003 l 5.6648,-4.655443 -6.9667,-1.563438 a 9.919211,9.9192096 0 0 0 -1.51306,-1.937345 l -0.10852,-7.266986 -5.56213,4.469457 a 9.919211,9.9192096 0 0 0 -1.32321,-0.08912 9.919211,9.9192096 0 0 0 -1.08491,0.106557 z" />
      </g>
    </g>
    <rect
       style="fill:#555753;stroke:none;stroke-width:0.999996;stroke-linecap:round;stroke-linejoin:bevel;paint-order:markers fill stroke"
       id="rect3"
       width="128"
       height="16"
       x="0"
       y="96.000008" />
    <path
       id="path3"
       style="fill:#555753;stroke:none;stroke-linecap:round;stroke-linejoin:bevel;paint-order:markers fill stroke"
       d="M 4 88 A 8 7.9999995 0 0 0 0 89.091797 L 0 102.9082 A 8 7.9999995 0 0 0 4 104 A 8 7.9999995 0 0 0 12 96 A 8 7.9999995 0 0 0 4 88 z " />
    <ellipse
       style="fill:#555753;stroke:none;stroke-linecap:round;stroke-linejoin:bevel;paint-order:markers fill stroke"
       id="path3-6"
       cx="28"
       cy="95.999992"
       rx="8"
       ry="7.9999995" />
    <ellipse
       style="fill:#555753;stroke:none;stroke-linecap:round;stroke-linejoin:bevel;paint-order:markers fill stroke"
       id="path3-4"
       cx="52"
       cy="95.999992"
       rx="8"
       ry="7.9999995" />
    <ellipse
       style="fill:#555753;stroke:none;stroke-linecap:round;stroke-linejoin:bevel;paint-order:markers fill stroke"
       id="path3-6-5"
       cx="76"
       cy="95.999992"
       rx="8"
       ry="7.9999995" />
    <ellipse
       style="fill:#555753;stroke:none;stroke-linecap:round;stroke-linejoin:bevel;paint-order:markers fill stroke"
       id="path3-5"
       cx="100"
       cy="95.999992"
       rx="8"
       ry="7.9999995" />
    <path
       id="path3-6-1"
       style="fill:#555753;stroke:none;stroke-linecap:round;stroke-linejoin:bevel;paint-order:markers fill stroke"
       d="M 124 88 A 8 7.9999995 0 0 0 116 96 A 8 7.9999995 0 0 0 124 104 A 8 7.9999995 0 0 0 128 102.9082 L 128 89.074219 A 8 7.9999995 0 0 0 124 88 z " />
  </g>
</svg>
