<?xml version="1.0" encoding="UTF-8" standalone="no"?>
<!-- Created with Inkscape (http://www.inkscape.org/) -->

<svg
   width="128"
   height="128"
   viewBox="0 0 128 128.00001"
   version="1.1"
   id="svg138"
   inkscape:version="1.2.2 (732a01da63, 2022-12-09)"
   sodipodi:docname="required.svg"
   xmlns:inkscape="http://www.inkscape.org/namespaces/inkscape"
   xmlns:sodipodi="http://sodipodi.sourceforge.net/DTD/sodipodi-0.dtd"
   xmlns="http://www.w3.org/2000/svg"
   xmlns:svg="http://www.w3.org/2000/svg">
  <sodipodi:namedview
     id="namedview140"
     pagecolor="#ffffff"
     bordercolor="#000000"
     borderopacity="0.25"
     inkscape:showpageshadow="2"
     inkscape:pageopacity="0.0"
     inkscape:pagecheckerboard="0"
     inkscape:deskcolor="#d1d1d1"
     inkscape:document-units="px"
     showgrid="true"
     showguides="true"
     inkscape:lockguides="true"
     inkscape:zoom="3.6596241"
     inkscape:cx="89.216814"
     inkscape:cy="83.888398"
     inkscape:window-width="2560"
     inkscape:window-height="1417"
     inkscape:window-x="-8"
     inkscape:window-y="-8"
     inkscape:window-maximized="1"
     inkscape:current-layer="layer3">
    <inkscape:grid
       type="xygrid"
       id="grid259"
       empspacing="4"
       originx="0"
       originy="0" />
    <inkscape:grid
       type="xygrid"
       id="grid261"
       spacingy="16.000001"
       spacingx="16.000001"
       color="#e5001f"
       opacity="0.14901961"
       originx="0"
       originy="0" />
    <sodipodi:guide
       position="-68,64.000005"
       orientation="0,-1"
       id="guide263"
       inkscape:locked="true" />
    <sodipodi:guide
       position="64.000007,63.999998"
       orientation="1,0"
       id="guide315"
       inkscape:locked="true" />
  </sodipodi:namedview>
  <defs
     id="defs135" />
  <g
     inkscape:groupmode="layer"
     id="layer3"
     inkscape:label="Dots"
     style="display:inline">
    <path
       id="path1101"
       style="fill:#cc0000;fill-opacity:1;stroke:none;stroke-width:16;stroke-linecap:square;stroke-linejoin:round"
       d="M 64,0 C 28.653811,0 0,28.653811 0,64 0,99.346189 28.653811,128 64,128 99.346189,128 128,99.346189 128,64 128,28.653811 99.346189,0 64,0 Z m 0,12 c 28.718778,0 52,23.281222 52,52 0,28.718778 -23.281222,52 -52,52 C 35.281222,116 12,92.718778 12,64 12,35.281222 35.281222,12 64,12 Z m -11,16 7,52.000005 h 8 L 75,28 c 0,-2 -1,-4 -3,-4 H 56 c -2,0 -3,2 -3,4 z m 7,60 c -3,0 -4,2 -4,3.971968 V 100 c 0,2 2,4 4,4 h 8 c 2,0 4,-2 4,-4 v -8 c 0,-2 -2,-4 -4,-4 z"
       sodipodi:nodetypes="sssssssssscccccccccccccccc" />
  </g>
  <g
     inkscape:label="Ebene 1"
     inkscape:groupmode="layer"
     id="layer1" />
</svg>
