<?xml version="1.0" encoding="UTF-8" standalone="no"?>
<!-- Created with Inkscape (http://www.inkscape.org/) -->

<svg
   width="128"
   height="128"
   viewBox="0 0 128 128"
   version="1.1"
   id="svg1"
   inkscape:version="1.3 (0e150ed6c4, 2023-07-21)"
   sodipodi:docname="required2.svg"
   xmlns:inkscape="http://www.inkscape.org/namespaces/inkscape"
   xmlns:sodipodi="http://sodipodi.sourceforge.net/DTD/sodipodi-0.dtd"
   xmlns="http://www.w3.org/2000/svg"
   xmlns:svg="http://www.w3.org/2000/svg">
  <sodipodi:namedview
     id="namedview1"
     pagecolor="#ffffff"
     bordercolor="#666666"
     borderopacity="1.0"
     inkscape:showpageshadow="2"
     inkscape:pageopacity="0.0"
     inkscape:pagecheckerboard="0"
     inkscape:deskcolor="#d1d1d1"
     inkscape:document-units="px"
     showgrid="true"
     showguides="true"
     inkscape:lockguides="true"
     guidecolor="#29e500"
     guideopacity="0.6"
     inkscape:zoom="4.8398438"
     inkscape:cx="60.125907"
     inkscape:cy="114.36319"
     inkscape:window-width="2560"
     inkscape:window-height="1417"
     inkscape:window-x="-8"
     inkscape:window-y="-8"
     inkscape:window-maximized="1"
     inkscape:current-layer="layer1">
    <inkscape:grid
       id="grid1"
       units="px"
       originx="0"
       originy="0"
       spacingx="1"
       spacingy="1"
       empcolor="#3f3fff"
       empopacity="0.25098039"
       color="#3f3fff"
       opacity="0.1254902"
       empspacing="4"
       dotted="false"
       gridanglex="30"
       gridanglez="30"
       visible="true" />
    <inkscape:grid
       id="grid2"
       units="px"
       originx="0"
       originy="0"
       spacingx="16"
       spacingy="16"
       empcolor="#3f3fff"
       empopacity="0.25098039"
       color="#bd0000"
       opacity="0.36078431"
       empspacing="4"
       dotted="false"
       gridanglex="30"
       gridanglez="30"
       visible="true" />
    <sodipodi:guide
       position="64,-60"
       orientation="1,0"
       id="guide2"
       inkscape:locked="true" />
    <sodipodi:guide
       position="-72,64"
       orientation="0,-1"
       id="guide3"
       inkscape:locked="true" />
  </sodipodi:namedview>
  <defs
     id="defs1" />
  <g
     inkscape:label="Ebene 1"
     inkscape:groupmode="layer"
     id="layer1">
    <path
       id="path1"
       style="fill:#005fd8;stroke:none;stroke-width:4;stroke-linecap:round;paint-order:markers fill stroke;fill-opacity:0.25"
       d="M 64 0 A 64 64 0 0 0 0 64 A 64 64 0 0 0 64 128 A 64 64 0 0 0 128 64 A 64 64 0 0 0 64 0 z M 64 16 A 48 48 0 0 1 112 64 A 48 48 0 0 1 64 112 A 48 48 0 0 1 16 64 A 48 48 0 0 1 64 16 z " />
    <circle
       style="fill:#cc0000;fill-opacity:1;stroke-width:16;stroke-linejoin:bevel;paint-order:markers fill stroke"
       id="path3"
       cx="64"
       cy="96"
       r="12" />
    <path
       style="fill:#cc0000;stroke-width:16;stroke-linejoin:bevel;paint-order:markers fill stroke"
       d="m 72,24 c 3.536478,2.185663 4,8 4,8 0,0 -4,42 -4,44 0,2 -1.897119,3.128958 -4,4 -2.102881,0.871042 -5.897119,0.871042 -8,0 -2.102881,-0.871042 -3.886004,-1.539974 -4,-4 -0.113996,-2.460026 -4,-44 -4,-44 0,0 0.463522,-5.814337 4,-8 3.536478,-2.185663 12.463522,-2.185663 16,0 z"
       id="path2"
       sodipodi:nodetypes="zczzzzczz" />
  </g>
</svg>
