<?xml version="1.0" encoding="UTF-8" standalone="no"?>
<!-- Created with Inkscape (http://www.inkscape.org/) -->

<svg
   width="128"
   height="128"
   viewBox="0 0 128 128.00001"
   version="1.1"
   id="svg138"
   inkscape:version="1.2.2 (732a01da63, 2022-12-09)"
   sodipodi:docname="required.svg"
   xmlns:inkscape="http://www.inkscape.org/namespaces/inkscape"
   xmlns:sodipodi="http://sodipodi.sourceforge.net/DTD/sodipodi-0.dtd"
   xmlns="http://www.w3.org/2000/svg"
   xmlns:svg="http://www.w3.org/2000/svg">
  <sodipodi:namedview
     id="namedview140"
     pagecolor="#ffffff"
     bordercolor="#000000"
     borderopacity="0.25"
     inkscape:showpageshadow="2"
     inkscape:pageopacity="0.0"
     inkscape:pagecheckerboard="0"
     inkscape:deskcolor="#d1d1d1"
     inkscape:document-units="px"
     showgrid="true"
     showguides="true"
     inkscape:lockguides="true"
     inkscape:zoom="5.17549"
     inkscape:cx="17.872704"
     inkscape:cy="57.965526"
     inkscape:window-width="2560"
     inkscape:window-height="1417"
     inkscape:window-x="-8"
     inkscape:window-y="-8"
     inkscape:window-maximized="1"
     inkscape:current-layer="layer3">
    <inkscape:grid
       type="xygrid"
       id="grid259"
       empspacing="4"
       originx="0"
       originy="0" />
    <inkscape:grid
       type="xygrid"
       id="grid261"
       spacingy="16.000001"
       spacingx="16.000001"
       color="#e5001f"
       opacity="0.14901961"
       originx="0"
       originy="0" />
    <sodipodi:guide
       position="-68,64.000005"
       orientation="0,-1"
       id="guide263"
       inkscape:locked="true" />
    <sodipodi:guide
       position="64.000007,63.999998"
       orientation="1,0"
       id="guide315"
       inkscape:locked="true" />
  </sodipodi:namedview>
  <defs
     id="defs135" />
  <g
     inkscape:groupmode="layer"
     id="layer3"
     inkscape:label="Dots"
     style="display:inline">
    <path
       style="fill:#cc0000;fill-opacity:1;stroke:none;stroke-width:20;stroke-linecap:square;stroke-linejoin:round"
       d="m 59,100 c -3.75,0 -5,2.5 -5,4.96496 V 115 c 0,2.5 2.5,5 5,5 h 10 c 2.5,0 5,-2.5 5,-5 v -10 c 0,-2.5 -2.5,-5 -5,-5 z"
       id="path693" />
    <path
       style="fill:#cc0000;fill-opacity:1;stroke:none;stroke-width:19.4286;stroke-linecap:square;stroke-linejoin:round"
       d="m 50,16.000001 8.642857,75.142857 h 12 L 78,16.000001 C 78,13 77,11 74,11 H 54 c -3,0 -4,2 -4,5.000001 z"
       id="path691"
       sodipodi:nodetypes="ccccssc" />
    <path
       id="path747"
       style="fill:#cc0000;stroke-width:2;stroke-linecap:round;stroke-linejoin:round"
       d="M 82.535156 19.726562 L 80.96875 32.251953 A 36 36 0 0 1 100 64 A 36 36 0 0 1 80 96.208984 L 80 109.23633 A 48 48 0 0 0 112 64 A 48 48 0 0 0 82.535156 19.726562 z M 45.470703 19.767578 A 48 48 0 0 0 16 64 A 48 48 0 0 0 48 109.23633 L 48 96.208984 A 36 36 0 0 1 28 64 A 36 36 0 0 1 47.037109 32.294922 L 45.470703 19.767578 z " />
  </g>
  <g
     inkscape:label="Ebene 1"
     inkscape:groupmode="layer"
     id="layer1" />
</svg>
