<?xml version="1.0" encoding="UTF-8" standalone="no"?>
<!-- Created with Inkscape (http://www.inkscape.org/) -->

<svg
   width="128"
   height="128"
   viewBox="0 0 128 128.00001"
   version="1.1"
   id="svg138"
   inkscape:version="1.3 (0e150ed6c4, 2023-07-21)"
   sodipodi:docname="required.svg"
   xmlns:inkscape="http://www.inkscape.org/namespaces/inkscape"
   xmlns:sodipodi="http://sodipodi.sourceforge.net/DTD/sodipodi-0.dtd"
   xmlns="http://www.w3.org/2000/svg"
   xmlns:svg="http://www.w3.org/2000/svg">
  <sodipodi:namedview
     id="namedview140"
     pagecolor="#ffffff"
     bordercolor="#000000"
     borderopacity="0.25"
     inkscape:showpageshadow="2"
     inkscape:pageopacity="0.0"
     inkscape:pagecheckerboard="0"
     inkscape:deskcolor="#d1d1d1"
     inkscape:document-units="px"
     showgrid="true"
     showguides="true"
     inkscape:lockguides="true"
     inkscape:zoom="5.17549"
     inkscape:cx="76.224667"
     inkscape:cy="71.007769"
     inkscape:window-width="1817"
     inkscape:window-height="999"
     inkscape:window-x="2617"
     inkscape:window-y="441"
     inkscape:window-maximized="1"
     inkscape:current-layer="layer2">
    <inkscape:grid
       type="xygrid"
       id="grid259"
       empspacing="4"
       originx="0"
       originy="0"
       spacingy="1"
       spacingx="1"
       units="px"
       visible="true" />
    <inkscape:grid
       type="xygrid"
       id="grid261"
       spacingy="16.000001"
       spacingx="16.000001"
       color="#e5001f"
       opacity="0.14901961"
       originx="0"
       originy="0"
       units="px"
       visible="true" />
    <sodipodi:guide
       position="-68,64.000005"
       orientation="0,-1"
       id="guide263"
       inkscape:locked="true" />
    <sodipodi:guide
       position="64.000007,63.999998"
       orientation="1,0"
       id="guide315"
       inkscape:locked="true" />
  </sodipodi:namedview>
  <defs
     id="defs135" />
  <g
     inkscape:label="Ring"
     inkscape:groupmode="layer"
     id="layer1" />
  <g
     inkscape:label="Ring Kopie"
     inkscape:groupmode="layer"
     id="g5"
     style="display:inline" />
  <g
     inkscape:groupmode="layer"
     id="layer2"
     inkscape:label="Exclamation"
     style="display:inline">
    <path
       id="rect24"
       style="fill:#cc0000;stroke-width:8;stroke-linecap:round;stroke-linejoin:bevel;paint-order:markers fill stroke"
       d="m 52,19.999998 c 2e-6,-10.6666673 24,-10.6666654 24,2e-6 -10e-7,51.999996 -6,71.999993 -6,71.999993 H 58 c 0,0 -6.000008,-19.999999 -6,-71.999995 z"
       sodipodi:nodetypes="ssccs" />
    <ellipse
       style="fill:#cc0000;stroke:none;stroke-width:8;stroke-linecap:round;stroke-linejoin:bevel;stroke-dasharray:none;stroke-opacity:1;paint-order:markers fill stroke"
       id="path24"
       cx="64.000008"
       cy="108"
       rx="12"
       ry="11.999999" />
    <path
       id="path25"
       style="fill:#3465a4;stroke:none;stroke-width:8;stroke-linecap:round;stroke-linejoin:bevel;stroke-dasharray:none;stroke-opacity:1;paint-order:markers fill stroke"
       d="M 44 20.371094 A 48.000008 47.999996 0 0 0 16 64 A 48.000008 47.999996 0 0 0 44.492188 107.82422 A 20 19.999998 0 0 1 50.523438 97.263672 A 36 35.999996 0 0 1 28 64 A 36 35.999996 0 0 1 44 34.164062 L 44 20.371094 z M 84 20.376953 L 84 34.083984 A 36 35.999996 0 0 1 100 64 A 36 35.999996 0 0 1 77.589844 97.332031 A 20 19.999998 0 0 1 83.552734 107.82031 A 48.000008 47.999996 0 0 0 112 64 A 48.000008 47.999996 0 0 0 84 20.376953 z " />
  </g>
</svg>
