<?xml version="1.0" encoding="UTF-8" standalone="no"?>
<!-- Created with Inkscape (http://www.inkscape.org/) -->

<svg
   width="128"
   height="128"
   viewBox="0 0 128 128.00001"
   version="1.1"
   id="svg138"
   inkscape:version="1.2.2 (732a01da63, 2022-12-09)"
   sodipodi:docname="slideshow.svg"
   inkscape:export-filename="img48\slideshow.png"
   inkscape:export-xdpi="36"
   inkscape:export-ydpi="36"
   xmlns:inkscape="http://www.inkscape.org/namespaces/inkscape"
   xmlns:sodipodi="http://sodipodi.sourceforge.net/DTD/sodipodi-0.dtd"
   xmlns:xlink="http://www.w3.org/1999/xlink"
   xmlns="http://www.w3.org/2000/svg"
   xmlns:svg="http://www.w3.org/2000/svg">
  <sodipodi:namedview
     id="namedview140"
     pagecolor="#ffffff"
     bordercolor="#000000"
     borderopacity="0.25"
     inkscape:showpageshadow="2"
     inkscape:pageopacity="0.0"
     inkscape:pagecheckerboard="0"
     inkscape:deskcolor="#d1d1d1"
     inkscape:document-units="px"
     showgrid="true"
     showguides="true"
     inkscape:lockguides="true"
     inkscape:zoom="5.1754899"
     inkscape:cx="20.384544"
     inkscape:cy="67.819667"
     inkscape:window-width="2560"
     inkscape:window-height="1401"
     inkscape:window-x="0"
     inkscape:window-y="0"
     inkscape:window-maximized="0"
     inkscape:current-layer="g1704">
    <inkscape:grid
       type="xygrid"
       id="grid259"
       empspacing="4"
       originx="0"
       originy="0"
       spacingy="1"
       spacingx="1"
       units="px"
       visible="true" />
    <inkscape:grid
       type="xygrid"
       id="grid261"
       spacingy="16.000001"
       spacingx="16.000001"
       color="#e5001f"
       opacity="0.14901961"
       originx="0"
       originy="0"
       units="px"
       visible="true" />
    <sodipodi:guide
       position="-68,64.000005"
       orientation="0,-1"
       id="guide263"
       inkscape:locked="true" />
    <sodipodi:guide
       position="64.000007,63.999998"
       orientation="1,0"
       id="guide315"
       inkscape:locked="true" />
  </sodipodi:namedview>
  <defs
     id="defs135">
    <linearGradient
       inkscape:collect="always"
       id="linearGradient1687">
      <stop
         style="stop-color:#4e9a06;stop-opacity:1"
         offset="0"
         id="stop1683" />
      <stop
         style="stop-color:#8ae234;stop-opacity:1"
         offset="1"
         id="stop1685" />
    </linearGradient>
    <linearGradient
       inkscape:collect="always"
       id="linearGradient1611">
      <stop
         style="stop-color:#d3e0f0;stop-opacity:1;"
         offset="0"
         id="stop1607" />
      <stop
         style="stop-color:#0774ff;stop-opacity:1;"
         offset="1"
         id="stop1609" />
    </linearGradient>
    <linearGradient
       inkscape:collect="always"
       xlink:href="#linearGradient1611"
       id="linearGradient1681"
       x1="64.000008"
       y1="88"
       x2="64"
       y2="16.000002"
       gradientUnits="userSpaceOnUse" />
    <linearGradient
       inkscape:collect="always"
       xlink:href="#linearGradient1687"
       id="linearGradient1689"
       x1="64.000008"
       y1="64"
       x2="64.000008"
       y2="112"
       gradientUnits="userSpaceOnUse" />
  </defs>
  <g
     inkscape:groupmode="layer"
     id="layer3"
     inkscape:label="Dots"
     style="display:inline">
    <g
       id="g1704"
       transform="matrix(0.56126691,0,0,0.58333325,28.078921,26.666665)">
      <rect
         style="fill:url(#linearGradient1681);fill-opacity:1;stroke-linecap:round;stroke-linejoin:round"
         id="rect3673"
         width="128.00002"
         height="96.000008"
         x="0"
         y="16.000002" />
      <path
         style="fill:url(#linearGradient1689);fill-opacity:1;stroke-linecap:round;stroke-linejoin:round"
         d="M 0,80.000005 C 64.000004,24 64.000004,112 128,72 v 40 l -128,1e-5 z"
         id="path3781"
         sodipodi:nodetypes="ccccc" />
      <path
         id="path453"
         style="fill:#fce94f;stroke-width:3.49532;stroke-linecap:round;stroke-linejoin:round"
         d="m 98.11994,18.263398 -3.295418,14.263395 a 10.690101,10.285715 0 0 0 -1.531135,0.612724 l -12.812809,-7.848216 8.156769,12.328127 a 10.690101,10.285715 0 0 0 -0.636812,1.473214 l -14.824164,3.17076 14.824164,3.170759 a 10.690101,10.285715 0 0 0 0.636812,1.473214 l -8.156769,12.328127 12.812809,-7.848215 a 10.690101,10.285715 0 0 0 1.531135,0.612723 l 3.295418,14.263395 3.29541,-14.263395 a 10.690101,10.285715 0 0 0 1.53114,-0.612723 l 12.81281,7.848215 -8.15677,-12.328127 a 10.690101,10.285715 0 0 0 0.63681,-1.473214 l 14.82416,-3.170759 -14.77544,-3.160715 a 10.690101,10.285715 0 0 0 -0.65769,-1.523438 l 8.12893,-12.287948 -12.77105,7.82143 a 10.690101,10.285715 0 0 0 -1.58334,-0.632813 z" />
    </g>
    <g
       inkscape:groupmode="layer"
       id="layer2"
       inkscape:label="Layer 1" />
  </g>
  <g
     inkscape:label="Ebene 1"
     inkscape:groupmode="layer"
     id="layer1">
    <path
       style="fill:#3465a4;stroke:none;stroke-linecap:round;stroke-linejoin:round"
       d="M 0,64.000003 16,48.000002 h 4 v 31.999997 l -4,5e-6 z"
       id="path315"
       sodipodi:nodetypes="cccccc" />
    <path
       style="fill:#3465a4;stroke:none;stroke-linecap:round;stroke-linejoin:round"
       d="M 128,63.999995 112,47.999994 h -4 v 31.999997 l 4,5e-6 z"
       id="path315-0"
       sodipodi:nodetypes="cccccc" />
  </g>
</svg>
