<?xml version="1.0" encoding="UTF-8" standalone="no"?>
<!-- Created with Inkscape (http://www.inkscape.org/) -->

<svg
   width="128"
   height="128"
   viewBox="0 0 128 128.00001"
   version="1.1"
   id="svg138"
   inkscape:version="1.2.2 (732a01da63, 2022-12-09)"
   sodipodi:docname="step2.svg"
   xmlns:inkscape="http://www.inkscape.org/namespaces/inkscape"
   xmlns:sodipodi="http://sodipodi.sourceforge.net/DTD/sodipodi-0.dtd"
   xmlns="http://www.w3.org/2000/svg"
   xmlns:svg="http://www.w3.org/2000/svg">
  <sodipodi:namedview
     id="namedview140"
     pagecolor="#ffffff"
     bordercolor="#000000"
     borderopacity="0.25"
     inkscape:showpageshadow="2"
     inkscape:pageopacity="0.0"
     inkscape:pagecheckerboard="0"
     inkscape:deskcolor="#d1d1d1"
     inkscape:document-units="px"
     showgrid="true"
     showguides="true"
     inkscape:lockguides="true"
     inkscape:zoom="5.17549"
     inkscape:cx="7.4389092"
     inkscape:cy="87.141507"
     inkscape:window-width="2560"
     inkscape:window-height="1417"
     inkscape:window-x="-8"
     inkscape:window-y="-8"
     inkscape:window-maximized="1"
     inkscape:current-layer="layer3">
    <inkscape:grid
       type="xygrid"
       id="grid259"
       empspacing="4"
       originx="0"
       originy="0" />
    <inkscape:grid
       type="xygrid"
       id="grid261"
       spacingy="16.000001"
       spacingx="16.000001"
       color="#e5001f"
       opacity="0.14901961"
       originx="0"
       originy="0" />
    <sodipodi:guide
       position="-68,64.000005"
       orientation="0,-1"
       id="guide263"
       inkscape:locked="true" />
    <sodipodi:guide
       position="64.000007,63.999998"
       orientation="1,0"
       id="guide315"
       inkscape:locked="true" />
  </sodipodi:namedview>
  <defs
     id="defs135" />
  <g
     inkscape:groupmode="layer"
     id="layer3"
     inkscape:label="Dots"
     style="display:inline">
    <g
       aria-label="2."
       id="text23800"
       style="font-weight:bold;font-size:162.794px;font-family:'Times New Roman';-inkscape-font-specification:'Times New Roman,  Bold';fill:#3465a4;stroke-width:81.3968;stroke-linejoin:round">
      <path
         d="M 71.43243,118.01314 H 8.0000001 v -1.74877 Q 37.172559,81.527567 43.372721,69.524689 49.652373,57.52181 49.652373,46.075357 q 0,-8.346373 -5.166802,-13.831132 -5.166802,-5.564248 -12.638793,-5.564248 -12.241346,0 -18.997933,12.241346 L 9.9077423,37.887963 Q 14.200162,22.626025 22.943981,15.313013 31.6878,8.0000007 43.134253,8.0000007 q 8.187394,0 14.943981,3.8154843 6.756588,3.815485 10.572072,10.492583 3.815485,6.597608 3.815485,12.400324 0,10.572072 -5.882206,21.462101 -8.028415,14.705513 -35.054764,41.016458 h 23.290354 q 8.58484,0 11.128496,-0.715403 2.623146,-0.715403 4.29242,-2.384678 1.669275,-1.748763 4.37191,-7.233522 h 2.861613 z"
         id="path23824"
         style="fill:#cc0000" />
      <path
         d="m 105.77179,93.530445 q 5.56425,0 9.37973,3.894974 3.89498,3.894971 3.89498,9.379731 0,5.48476 -3.89498,9.37973 -3.89497,3.81549 -9.37973,3.81549 -5.48476,0 -9.379732,-3.81549 -3.815484,-3.89497 -3.815484,-9.37973 0,-5.48476 3.815484,-9.379731 3.894972,-3.894974 9.379732,-3.894974 z"
         id="path23826"
         style="fill:#cc0000" />
    </g>
  </g>
  <g
     inkscape:label="Ebene 1"
     inkscape:groupmode="layer"
     id="layer1" />
</svg>
