<?xml version="1.0" encoding="UTF-8" standalone="no"?>
<!-- Created with Inkscape (http://www.inkscape.org/) -->

<svg
   width="128"
   height="128"
   viewBox="0 0 128 128"
   version="1.1"
   id="svg1"
   inkscape:version="1.2.2 (732a01da63, 2022-12-09)"
   sodipodi:docname="watermark.svg"
   xmlns:inkscape="http://www.inkscape.org/namespaces/inkscape"
   xmlns:sodipodi="http://sodipodi.sourceforge.net/DTD/sodipodi-0.dtd"
   xmlns="http://www.w3.org/2000/svg"
   xmlns:svg="http://www.w3.org/2000/svg">
  <sodipodi:namedview
     id="namedview1"
     pagecolor="#ffffff"
     bordercolor="#666666"
     borderopacity="1.0"
     inkscape:showpageshadow="2"
     inkscape:pageopacity="0.0"
     inkscape:pagecheckerboard="0"
     inkscape:deskcolor="#d1d1d1"
     inkscape:document-units="px"
     showgrid="true"
     showguides="true"
     inkscape:lockguides="true"
     guidecolor="#29e500"
     guideopacity="0.6"
     inkscape:zoom="4.8398437"
     inkscape:cx="37.397902"
     inkscape:cy="86.366425"
     inkscape:window-width="1845"
     inkscape:window-height="1237"
     inkscape:window-x="96"
     inkscape:window-y="24"
     inkscape:window-maximized="0"
     inkscape:current-layer="g2">
    <inkscape:grid
       id="grid1"
       units="px"
       originx="0"
       originy="0"
       spacingx="1"
       spacingy="1"
       empcolor="#3f3fff"
       empopacity="0.25098039"
       color="#3f3fff"
       opacity="0.1254902"
       empspacing="4"
       dotted="false"
       gridanglex="30"
       gridanglez="30"
       visible="true" />
    <inkscape:grid
       id="grid2"
       units="px"
       originx="0"
       originy="0"
       spacingx="16"
       spacingy="16"
       empcolor="#3f3fff"
       empopacity="0.25098039"
       color="#bd0000"
       opacity="0.36078431"
       empspacing="4"
       dotted="false"
       gridanglex="30"
       gridanglez="30"
       visible="true" />
    <sodipodi:guide
       position="64,-60"
       orientation="1,0"
       id="guide2"
       inkscape:locked="true" />
    <sodipodi:guide
       position="-72,64"
       orientation="0,-1"
       id="guide3"
       inkscape:locked="true" />
  </sodipodi:namedview>
  <defs
     id="defs1" />
  <g
     inkscape:label="Ebene 1"
     inkscape:groupmode="layer"
     id="layer1">
    <g
       id="g2"
       transform="translate(-0.181641,-4.0058594)">
      <g
         id="g697"
         transform="rotate(30,74.208798,81.817705)">
        <path
           id="path1"
           style="fill:#d99c3c;fill-opacity:1;stroke-width:14.8966;stroke-linejoin:bevel;paint-order:markers fill stroke"
           d="m 63.843411,8.0004041 v 0.00546 c -4.285237,0.00222 -23.539377,0.237428 -22.006681,18.6153029 1.564293,18.756766 10.168867,23.340297 11.172455,41.355402 0.207144,3.718383 -2.793113,5.603527 -2.793114,8.379342 10e-7,2.775817 1.96557,7.649948 1.96557,7.649948 h -32 l -4,24.000001 47.66177,0.93637 h 0.33823 l 47.999999,-0.93637 -4,-24.000001 -32.306836,-4e-6 c 0,0 1.934177,-4.874136 1.934177,-7.649948 0,-2.775813 -2.655662,-4.657731 -2.793114,-8.379342 C 74.350508,49.96146 84.624029,45.377928 86.188322,26.621163 87.721018,8.2432882 68.466877,8.0080827 64.181641,8.0058594 v -0.00546 c -0.03761,0 -0.128185,0.00183 -0.169115,0.00182 -0.04093,6.6e-6 -0.131503,-0.00182 -0.169115,-0.00182 z"
           sodipodi:nodetypes="ccsssccccccccsssccccc" />
        <path
           id="rect1"
           style="fill:#888a85;stroke-width:15.4384;stroke-linejoin:bevel;paint-order:markers fill stroke"
           d="m 19.660934,108.00586 v 8 h 44.520707 0.338231 44.520718 v -8 H 64.519872 64.181641 Z" />
        <ellipse
           style="fill:#ffffff;stroke-width:14.8966;stroke-linejoin:bevel;paint-order:markers fill stroke"
           id="path2"
           cx="33.773167"
           cy="39.986191"
           rx="5.5862279"
           ry="3.7241518"
           transform="rotate(-30)" />
      </g>
    </g>
  </g>
</svg>
