<?xml version="1.0" encoding="UTF-8" standalone="no"?>
<!-- Created with Inkscape (http://www.inkscape.org/) -->

<svg
   width="24"
   height="24"
   viewBox="0 0 6.35 6.35"
   version="1.1"
   id="svg5526"
   inkscape:version="1.2.2 (732a01da63, 2022-12-09)"
   sodipodi:docname="sprocket.svg"
   inkscape:export-filename="..\png32\sprocket.png"
   inkscape:export-xdpi="128"
   inkscape:export-ydpi="128"
   xmlns:inkscape="http://www.inkscape.org/namespaces/inkscape"
   xmlns:sodipodi="http://sodipodi.sourceforge.net/DTD/sodipodi-0.dtd"
   xmlns:xlink="http://www.w3.org/1999/xlink"
   xmlns="http://www.w3.org/2000/svg"
   xmlns:svg="http://www.w3.org/2000/svg">
  <sodipodi:namedview
     id="namedview5528"
     pagecolor="#e2e2e2"
     bordercolor="#000000"
     borderopacity="0.25"
     inkscape:showpageshadow="2"
     inkscape:pageopacity="0"
     inkscape:pagecheckerboard="0"
     inkscape:deskcolor="#d1d1d1"
     inkscape:document-units="px"
     showgrid="true"
     showguides="true"
     inkscape:zoom="41.403919"
     inkscape:cx="9.9749012"
     inkscape:cy="17.220592"
     inkscape:window-width="2560"
     inkscape:window-height="1417"
     inkscape:window-x="-8"
     inkscape:window-y="-8"
     inkscape:window-maximized="1"
     inkscape:current-layer="layer1"
     inkscape:lockguides="true">
    <inkscape:grid
       type="xygrid"
       id="grid6010"
       empspacing="1"
       originx="0.26458333"
       originy="0.26458333"
       spacingx="0.26458333"
       spacingy="0.26458333"
       enabled="true"
       visible="true" />
    <sodipodi:guide
       position="-3.4395833,5.8208333"
       orientation="0,-1"
       id="guide6012"
       inkscape:locked="true" />
    <sodipodi:guide
       position="2.778125,0.52916674"
       orientation="0,-1"
       id="guide6014"
       inkscape:locked="true" />
    <sodipodi:guide
       position="0.52916666,6.4822917"
       orientation="1,0"
       id="guide6016"
       inkscape:locked="true" />
    <sodipodi:guide
       position="5.8208333,5.953125"
       orientation="1,0"
       id="guide6018"
       inkscape:locked="true" />
    <sodipodi:guide
       position="-0.396875,3.175"
       orientation="0,-1"
       id="guide6020"
       inkscape:locked="true" />
    <sodipodi:guide
       position="3.175,9.2604166"
       orientation="1,0"
       id="guide6022"
       inkscape:locked="true" />
    <inkscape:grid
       type="xygrid"
       id="grid294"
       dotted="true"
       empspacing="1"
       originx="0.13229167"
       originy="0.13229167" />
  </sodipodi:namedview>
  <defs
     id="defs5523">
    <linearGradient
       inkscape:collect="always"
       id="linearGradient3174">
      <stop
         style="stop-color:#aaccff;stop-opacity:1"
         offset="0"
         id="stop3170" />
      <stop
         style="stop-color:#999999;stop-opacity:1"
         offset="1"
         id="stop3172" />
    </linearGradient>
    <linearGradient
       id="linearGradient4183"
       inkscape:swatch="solid">
      <stop
         style="stop-color:#000000;stop-opacity:1;"
         offset="0"
         id="stop4181" />
    </linearGradient>
    <linearGradient
       inkscape:collect="always"
       xlink:href="#linearGradient3174"
       id="linearGradient3176"
       x1="4.0745831"
       y1="0.61405271"
       x2="6.5748959"
       y2="3.5310841"
       gradientUnits="userSpaceOnUse" />
  </defs>
  <g
     inkscape:label="Ebene 1"
     inkscape:groupmode="layer"
     id="layer1"
     transform="matrix(1.2698412,0,0,1.2698412,-3.5865737,0.54316723)">
    <path
       id="path3002"
       style="fill:url(#linearGradient3176);stroke-width:0.20835939;fill-opacity:1;stroke:#666666;stroke-opacity:1;stroke-dasharray:none"
       d="M 5.3239257 0.19367137 A 1.8752345 1.8752345 0 0 0 5.1033577 0.21117031 L 4.9169738 0.67875807 A 1.4490448 1.4490449 0 0 0 4.6292587 0.79840194 L 4.1661474 0.59940245 A 1.8752345 1.8752345 0 0 0 3.8540153 0.91153457 L 4.0530148 1.3746459 A 1.4490448 1.4490449 0 0 0 3.9333709 1.6623609 L 3.4657832 1.8487449 A 1.8752345 1.8752345 0 0 0 3.4486912 2.0689059 A 1.8752345 1.8752345 0 0 0 3.4657832 2.2894738 L 3.9333709 2.4758578 A 1.4490448 1.4490449 0 0 0 4.0530148 2.7635728 L 3.8540153 3.2266841 A 1.8752345 1.8752345 0 0 0 4.1661474 3.5388162 L 4.6292587 3.3398167 A 1.4490448 1.4490449 0 0 0 4.9169738 3.4594606 L 5.1033577 3.9270484 A 1.8752345 1.8752345 0 0 0 5.3239257 3.9441403 A 1.8752345 1.8752345 0 0 0 5.5440867 3.9270484 L 5.7304707 3.4594606 A 1.4490448 1.4490449 0 0 0 6.0181857 3.3398167 L 6.481297 3.5388162 A 1.8752345 1.8752345 0 0 0 6.7934291 3.2266841 L 6.5944296 2.7635728 A 1.4490448 1.4490449 0 0 0 6.7140735 2.4758578 L 7.1816612 2.2894738 A 1.8752345 1.8752345 0 0 0 7.1991602 2.0689059 A 1.8752345 1.8752345 0 0 0 7.1816612 1.8487449 L 6.7144804 1.6623609 A 1.4490448 1.4490449 0 0 0 6.5948365 1.373425 L 6.7934291 0.91153457 A 1.8752345 1.8752345 0 0 0 6.481297 0.59940245 L 6.0194065 0.79799499 A 1.4490448 1.4490449 0 0 0 5.7304707 0.67835112 L 5.5440867 0.21117031 A 1.8752345 1.8752345 0 0 0 5.3239257 0.19367137 z M 5.3247396 1.4474903 A 0.62507814 0.62507814 0 0 1 5.9498177 2.0725684 A 0.62507814 0.62507814 0 0 1 5.3247396 2.6976466 A 0.62507814 0.62507814 0 0 1 4.6996614 2.0725684 A 0.62507814 0.62507814 0 0 1 5.3247396 1.4474903 z " />
  </g>
  <g
     inkscape:groupmode="layer"
     id="layer3"
     inkscape:label="Dots"
     style="display:none"
     transform="matrix(0.12500001,0,0,0.125,2.1166663,2.1166668)"
     sodipodi:insensitive="true">
    <rect
       style="fill:#000000;fill-opacity:1;stroke-width:1;stroke-dashoffset:68.0315"
       id="rect9386"
       width="4.2333331"
       height="4.2333331"
       x="27.516666"
       y="27.516666"
       ry="2.7838135e-07" />
    <rect
       style="fill:#000000;fill-opacity:1;stroke-width:1;stroke-dashoffset:68.0315"
       id="rect9388"
       width="4.2333331"
       height="4.2333331"
       x="21.166666"
       y="27.516666"
       ry="2.7838135e-07" />
    <rect
       style="fill:#000000;fill-opacity:1;stroke-width:1;stroke-dashoffset:68.0315"
       id="rect9390"
       width="4.2333331"
       height="4.2333331"
       x="14.816668"
       y="27.516666"
       ry="2.7838135e-07" />
  </g>
</svg>
